<svg width="131" height="30" viewBox="0 0 131 30" fill="none" xmlns="http://www.w3.org/2000/svg">
<path d="M18.1532 0H13.2639V24H18.1532V8.32899L15.257 10.5606L13.2639 7.98902L18.1532 4.22159V0Z" fill="#1E1463"/>
<path d="M26.8035 0H21.9142V24H26.8035V8.32899L23.9074 10.5606L21.9142 7.98902L26.8035 4.22159V0Z" fill="#1E1463"/>
<path d="M30.1885 29.725V27.175H32.0188C33.2224 27.175 33.9746 26.9 34.5011 25.45L34.8521 24.525L29.8625 11.65H33.097L36.2813 20.65L39.6412 11.65H42.8004L36.7326 26.75C35.8049 29.05 34.5011 30 32.4702 30C31.6177 30 30.8655 29.9 30.1885 29.725Z" fill="#1E1463"/>
<path d="M4.23742 24.325C1.6047 24.325 0 22.8 0 20.475C0 18.2 1.65485 16.775 4.58845 16.55L8.29932 16.275V16C8.29932 14.325 7.29638 13.65 5.74183 13.65C3.93654 13.65 2.9336 14.4 2.9336 15.7H0.325955C0.325955 13.025 2.53242 11.275 5.89227 11.275C9.22704 11.275 11.2831 13.075 11.2831 16.5V24H8.6002L8.37454 22.175C7.848 23.45 6.16808 24.325 4.23742 24.325ZM5.24036 22.025C7.12087 22.025 8.3244 20.9 8.3244 19V18.35L5.74183 18.55C3.83624 18.725 3.10911 19.35 3.10911 20.35C3.10911 21.475 3.86132 22.025 5.24036 22.025Z" fill="#1E1463"/>
<path d="M57.7944 16.525H50.9744V24H47.765V5.725H59.0982V8.675H50.9744V13.65H57.7944V16.525Z" fill="#1E1463"/>
<path d="M78.7152 14.85C78.7152 20.4 75.0545 24.3 69.7891 24.3C64.5487 24.3 60.9381 20.425 60.9381 14.85C60.9381 9.3 64.5738 5.4 69.8142 5.4C75.0545 5.4 78.7152 9.275 78.7152 14.85ZM75.3303 14.85C75.3303 10.95 73.174 8.475 69.8142 8.475C66.4543 8.475 64.298 10.95 64.298 14.85C64.298 18.75 66.4543 21.225 69.8142 21.225C73.174 21.225 75.3303 18.7 75.3303 14.85Z" fill="#1E1463"/>
<path d="M84.9117 24H81.7023V5.725H88.6978C92.86 5.725 95.2921 7.825 95.2921 11.425C95.2921 13.875 94.1388 15.625 91.9824 16.5L95.4677 24H91.9574L88.8483 17.175H84.9117V24ZM84.9117 8.575V14.35H88.6978C90.7288 14.35 91.9323 13.275 91.9323 11.425C91.9323 9.6 90.7288 8.575 88.6978 8.575H84.9117Z" fill="#1E1463"/>
<path d="M106.474 8.425C102.838 8.425 100.757 11.05 100.757 15C100.757 19.075 103.114 21.3 106.499 21.3C109.684 21.3 111.614 19.55 111.614 16.625V16.55H106.073V13.725H114.598V24H111.89L111.689 21.9C110.686 23.3 108.605 24.275 106.123 24.275C100.983 24.275 97.3975 20.55 97.3975 14.925C97.3975 9.375 101.033 5.425 106.549 5.425C110.737 5.425 113.971 7.85 114.498 11.575H111.113C110.536 9.425 108.681 8.425 106.474 8.425Z" fill="#1E1463"/>
<path d="M130.206 24H118.823V5.725H130.206V8.675H122.032V13.375H129.354V16.2H122.032V21.05H130.206V24Z" fill="#1E1463"/>
</svg>
