<svg width="34" height="35" viewBox="0 0 34 35" fill="none" xmlns="http://www.w3.org/2000/svg">
<mask id="mask0_1_3385" style="mask-type:alpha" maskUnits="userSpaceOnUse" x="0" y="0" width="34" height="35">
<rect y="0.5" width="33.5122" height="33.5122" fill="#D9D9D9"/>
</mask>
<g mask="url(#mask0_1_3385)">
<path d="M8.65227 24.9128C9.83916 24.0589 11.0985 23.3837 12.4304 22.8871C13.7623 22.3902 15.2042 22.1418 16.7563 22.1418C18.3083 22.1418 19.7503 22.3902 21.0821 22.8871C22.414 23.3837 23.6734 24.0589 24.8603 24.9128C25.7824 23.9586 26.5239 22.8318 27.085 21.5323C27.6464 20.2325 27.927 18.8066 27.927 17.2546C27.927 14.1594 26.839 11.5238 24.6631 9.34779C22.4871 7.17182 19.8515 6.08384 16.7563 6.08384C13.6611 6.08384 11.0255 7.17182 8.8495 9.34779C6.67353 11.5238 5.58555 14.1594 5.58555 17.2546C5.58555 18.8066 5.86622 20.2325 6.42754 21.5323C6.98864 22.8318 7.73022 23.9586 8.65227 24.9128ZM16.757 17.9527C15.5803 17.9527 14.5879 17.5489 13.7796 16.7411C12.9714 15.9333 12.5673 14.9411 12.5673 13.7644C12.5673 12.5878 12.9711 11.5953 13.7789 10.7871C14.5867 9.97882 15.5789 9.5747 16.7556 9.5747C17.9322 9.5747 18.9247 9.97859 19.7329 10.7864C20.5412 11.5942 20.9453 12.5864 20.9453 13.763C20.9453 14.9397 20.5414 15.9321 19.7336 16.7404C18.9258 17.5486 17.9336 17.9527 16.757 17.9527ZM16.7563 29.8216C15.0036 29.8216 13.3629 29.4954 11.8342 28.8428C10.3054 28.1903 8.97529 27.2983 7.84378 26.1671C6.71251 25.0356 5.8206 23.7054 5.16804 22.1767C4.51549 20.6479 4.18921 19.0072 4.18921 17.2546C4.18921 15.5019 4.51549 13.8612 5.16804 12.3325C5.8206 10.8037 6.71251 9.47358 7.84378 8.34208C8.97529 7.21081 10.3054 6.31889 11.8342 5.66633C13.3629 5.01378 15.0036 4.6875 16.7563 4.6875C18.5089 4.6875 20.1496 5.01378 21.6784 5.66633C23.2071 6.31889 24.5373 7.21081 25.6688 8.34208C26.8001 9.47358 27.692 10.8037 28.3445 12.3325C28.9971 13.8612 29.3234 15.5019 29.3234 17.2546C29.3234 19.0072 28.9971 20.6479 28.3445 22.1767C27.692 23.7054 26.8001 25.0356 25.6688 26.1671C24.5373 27.2983 23.2071 28.1903 21.6784 28.8428C20.1496 29.4954 18.5089 29.8216 16.7563 29.8216ZM16.7563 28.4253C18.0435 28.4253 19.3101 28.2001 20.5561 27.7498C21.8018 27.2997 22.8785 26.6835 23.7862 25.9011C22.8785 25.1724 21.8286 24.5964 20.6364 24.1731C19.4441 23.7498 18.1508 23.5381 16.7563 23.5381C15.3618 23.5381 14.0639 23.7454 12.8626 24.1598C11.6615 24.5743 10.6161 25.1547 9.7264 25.9011C10.634 26.6835 11.7107 27.2997 12.9565 27.7498C14.2025 28.2001 15.4691 28.4253 16.7563 28.4253ZM16.7563 16.5564C17.5403 16.5564 18.2018 16.287 18.7408 15.7483C19.2796 15.2093 19.549 14.5478 19.549 13.7637C19.549 12.9797 19.2796 12.3182 18.7408 11.7792C18.2018 11.2404 17.5403 10.971 16.7563 10.971C15.9722 10.971 15.3107 11.2404 14.7717 11.7792C14.233 12.3182 13.9636 12.9797 13.9636 13.7637C13.9636 14.5478 14.233 15.2093 14.7717 15.7483C15.3107 16.287 15.9722 16.5564 16.7563 16.5564Z" fill="#07A7C9"/>
</g>
</svg>
