<svg width="26" height="26" viewBox="0 0 26 26" fill="none" xmlns="http://www.w3.org/2000/svg">
<mask id="mask0_2038_17736" style="mask-type:alpha" maskUnits="userSpaceOnUse" x="0" y="0" width="26" height="26">
<rect width="26" height="26" fill="#D9D9D9"/>
</mask>
<g mask="url(#mask0_2038_17736)">
<path d="M15.9581 23.3739C15.5613 23.6408 15.031 23.5894 14.6929 23.2512L11.3779 19.9363C10.9874 19.5457 10.9874 18.9126 11.3779 18.5221L11.4804 18.4196C11.8709 18.0291 12.5041 18.0291 12.8946 18.4196L14.6523 20.1773C15.0083 20.5333 15.5733 20.5692 15.9714 20.2611L22.763 15.0057C23.4202 14.4971 24.375 14.9656 24.375 15.7966V17.18C24.375 17.5129 24.2093 17.8239 23.9331 18.0097L15.9581 23.3739ZM4.6904 17.3333C3.99291 17.3333 3.50968 16.6373 3.75348 15.9838L8.2615 3.90046C8.40742 3.50933 8.78095 3.25 9.19842 3.25H10.3558C10.7732 3.25 11.1467 3.50933 11.2927 3.90046L15.8007 15.9838C16.0445 16.6373 15.5613 17.3333 14.8638 17.3333H14.523C14.0976 17.3333 13.7187 17.0642 13.5787 16.6624L12.8005 14.4293C12.6605 14.0275 12.2816 13.7583 11.8562 13.7583H7.58966C7.16422 13.7583 6.78536 14.0275 6.64536 14.4293L5.86714 16.6624C5.72714 17.0642 5.34828 17.3333 4.92284 17.3333H4.6904ZM8.10613 10.3681C7.87727 11.0185 8.3599 11.7 9.04945 11.7H10.4506C11.1401 11.7 11.6227 11.0185 11.3939 10.3681L9.82215 5.9011C9.81137 5.87048 9.78245 5.85 9.75 5.85C9.71755 5.85 9.68863 5.87048 9.67786 5.9011L8.10613 10.3681Z" fill="#07A7C9"/>
</g>
<path d="M18.3536 16.8262C17.8317 16.8262 17.4433 16.7585 17.1884 16.6229C16.9456 16.4806 16.8242 16.2637 16.8242 15.9723V3.91546C16.8242 3.61726 16.9456 3.40039 17.1884 3.26484C17.4433 3.1293 17.8317 3.06152 18.3536 3.06152C18.8877 3.06152 19.2761 3.1293 19.5189 3.26484C19.7617 3.40039 19.883 3.61726 19.883 3.91546V15.9723C19.883 16.2637 19.7617 16.4806 19.5189 16.6229C19.2761 16.7585 18.8877 16.8262 18.3536 16.8262Z" fill="#07A7C9"/>
</svg>
