<svg width="28" height="28" viewBox="0 0 28 28" fill="none" xmlns="http://www.w3.org/2000/svg">
<mask id="mask0_1_3269" style="mask-type:alpha" maskUnits="userSpaceOnUse" x="0" y="0" width="28" height="28">
<rect width="28" height="28" fill="#D9D9D9"/>
</mask>
<g mask="url(#mask0_1_3269)">
<path d="M13.9998 25.0833C12.4682 25.0833 11.0279 24.7924 9.67909 24.2107C8.33023 23.6289 7.15695 22.8393 6.15925 21.842C5.16156 20.8447 4.37163 19.6719 3.78946 18.3237C3.20749 16.9754 2.9165 15.5348 2.9165 14.002C2.9165 12.469 3.20739 11.0281 3.78917 9.67925C4.37095 8.33039 5.16049 7.15711 6.1578 6.15941C7.1551 5.16172 8.32789 4.37179 9.67617 3.78962C11.0244 3.20765 12.465 2.91666 13.9978 2.91666C15.5308 2.91666 16.9717 3.20765 18.3206 3.78962C19.6694 4.3714 20.8427 5.16104 21.8404 6.15854C22.8381 7.15604 23.628 8.32902 24.2102 9.6775C24.7922 11.026 25.0832 12.4668 25.0832 14V15.4225C25.0832 16.4874 24.7175 17.3916 23.9862 18.135C23.2549 18.8783 22.3567 19.25 21.2915 19.25C20.6034 19.25 19.9654 19.0817 19.3776 18.7451C18.7898 18.4085 18.3254 17.9456 17.9843 17.3562C17.4803 17.9576 16.8847 18.4236 16.1975 18.7542C15.5102 19.0847 14.7776 19.25 13.9998 19.25C12.5431 19.25 11.3039 18.7392 10.2823 17.7176C9.26064 16.696 8.74984 15.4568 8.74984 14C8.74984 12.5432 9.26064 11.304 10.2823 10.2824C11.3039 9.2608 12.5431 8.75 13.9998 8.75C15.4566 8.75 16.6958 9.2608 17.7174 10.2824C18.739 11.304 19.2498 12.5432 19.2498 14V15.4225C19.2498 15.9953 19.4469 16.4848 19.841 16.891C20.2352 17.297 20.7187 17.5 21.2915 17.5C21.8643 17.5 22.3478 17.297 22.742 16.891C23.1361 16.4848 23.3332 15.9953 23.3332 15.4225V14C23.3332 11.3944 22.429 9.1875 20.6207 7.37916C18.8123 5.57083 16.6054 4.66666 13.9998 4.66666C11.3943 4.66666 9.18734 5.57083 7.379 7.37916C5.57067 9.1875 4.6665 11.3944 4.6665 14C4.6665 16.6056 5.57067 18.8125 7.379 20.6208C9.18734 22.4292 11.3943 23.3333 13.9998 23.3333H19.8332V25.0833H13.9998ZM13.9998 17.5C14.9721 17.5 15.7984 17.1597 16.479 16.4792C17.1596 15.7986 17.4998 14.9722 17.4998 14C17.4998 13.0278 17.1596 12.2014 16.479 11.5208C15.7984 10.8403 14.9721 10.5 13.9998 10.5C13.0276 10.5 12.2012 10.8403 11.5207 11.5208C10.8401 12.2014 10.4998 13.0278 10.4998 14C10.4998 14.9722 10.8401 15.7986 11.5207 16.4792C12.2012 17.1597 13.0276 17.5 13.9998 17.5Z" fill="#1C1B1F"/>
</g>
</svg>
