<svg width="62" height="62" viewBox="0 0 62 62" fill="none" xmlns="http://www.w3.org/2000/svg">
<mask id="mask0_1_3415" style="mask-type:alpha" maskUnits="userSpaceOnUse" x="0" y="0" width="62" height="62">
<rect width="62" height="62" fill="#D9D9D9"/>
</mask>
<g mask="url(#mask0_1_3415)">
<path d="M30.9999 40.413L33.6976 37.7154L28.9184 32.9362H40.6874V29.0612H28.9184L33.6976 24.282L30.9999 21.5844L21.5856 30.9987L30.9999 40.413ZM31.0044 55.5404C27.6099 55.5404 24.4193 54.8963 21.4325 53.608C18.4458 52.3198 15.8478 50.5715 13.6386 48.3632C11.4294 46.1549 9.68031 43.558 8.39123 40.5725C7.10258 37.5871 6.45825 34.3973 6.45825 31.0032C6.45825 27.6087 7.10236 24.4181 8.39059 21.4313C9.67881 18.4446 11.4271 15.8466 13.6354 13.6374C15.8437 11.4282 18.4406 9.67909 21.4261 8.39001C24.4116 7.10136 27.6013 6.45703 30.9954 6.45703C34.3899 6.45703 37.5805 7.10114 40.5673 8.38936C43.5541 9.67759 46.152 11.4259 48.3612 13.6342C50.5704 15.8425 52.3195 18.4394 53.6086 21.4249C54.8973 24.4103 55.5416 27.6001 55.5416 30.9942C55.5416 34.3887 54.8975 37.5793 53.6093 40.5661C52.321 43.5528 50.5728 46.1508 48.3644 48.36C46.1561 50.5692 43.5592 52.3183 40.5738 53.6074C37.5883 54.896 34.3985 55.5404 31.0044 55.5404ZM30.9999 51.6654C36.7694 51.6654 41.6562 49.6633 45.6603 45.6591C49.6645 41.6549 51.6666 36.7681 51.6666 30.9987C51.6666 25.2293 49.6645 20.3424 45.6603 16.3383C41.6562 12.3341 36.7694 10.332 30.9999 10.332C25.2305 10.332 20.3437 12.3341 16.3395 16.3383C12.3353 20.3424 10.3333 25.2293 10.3333 30.9987C10.3333 36.7681 12.3353 41.6549 16.3395 45.6591C20.3437 49.6633 25.2305 51.6654 30.9999 51.6654Z" fill="#43D7F7"/>
</g>
</svg>
