<svg width="18" height="20" viewBox="0 0 18 20" fill="none" xmlns="http://www.w3.org/2000/svg">
<path d="M14.7345 2.98248C13.7358 2.00277 12.1148 2.00277 11.116 2.98248L3.58424 10.3674C1.86135 12.0572 1.86135 14.7944 3.58424 16.4841C5.30754 18.1738 8.09921 18.1738 9.82251 16.4841L16.0444 10.3835C16.4906 9.94602 17.2192 9.94602 17.6654 10.3835C18.1115 10.821 18.1115 11.5354 17.6654 11.9729L11.4435 18.0735C8.82373 20.6422 4.58302 20.6422 1.96327 18.0735C-0.654425 15.5048 -0.654425 11.3468 1.96327 8.77807L9.49504 1.39311C11.3903 -0.46437 14.4603 -0.46437 16.3555 1.39311C18.2507 3.25059 18.2507 6.26156 16.3555 8.11985L9.1512 15.1837C7.9805 16.3316 6.08118 16.3316 4.91049 15.1837C3.73938 14.0358 3.73938 12.1735 4.91049 11.0257L10.8049 5.24613C11.2511 4.80865 11.9797 4.80865 12.4259 5.24613C12.8721 5.68361 12.8721 6.39803 12.4259 6.8355L6.53145 12.615C6.2572 12.8839 6.2572 13.3254 6.53145 13.5943C6.80571 13.8633 7.25598 13.8633 7.53023 13.5943L14.7345 6.53047C15.7333 5.55116 15.7333 3.96179 14.7345 2.98248Z" fill="#43D7F7"/>
</svg>
