<svg width="80" height="80" viewBox="0 0 80 80" fill="none" xmlns="http://www.w3.org/2000/svg">
<path d="M35.833 17.5001C39.5149 17.5001 42.4997 14.5153 42.4997 10.8334C42.4997 7.15152 39.5149 4.16675 35.833 4.16675C32.1511 4.16675 29.1663 7.15152 29.1663 10.8334C29.1663 14.5153 32.1511 17.5001 35.833 17.5001Z" fill="#D4D2E3"/>
<path d="M37.933 22.9001C37.3663 21.7334 36.4663 20.7334 35.2663 20.0667C33.233 18.8667 30.7997 18.9334 28.833 19.9667V19.9334L10.833 30.1667V45.8334H17.4997V34.0334L22.4997 31.2001C21.433 34.8667 20.833 38.6667 20.833 42.5001V60.2668L12.1663 71.8334L17.4997 75.8334L27.4997 62.5001L28.233 50.7001L34.1663 59.1668V75.8334H40.833V54.1668L34.2663 44.8001C34.133 43.0667 33.7997 38.9334 35.7663 33.4667C38.2663 37.2668 42.033 40.0667 46.433 41.5001L66.2663 75.8334L69.1663 74.1667L50.8997 42.5001H54.1663V35.8334C52.533 35.8334 44.5663 36.4001 40.5663 28.4667" fill="#D4D2E3"/>
</svg>
