<svg width="22" height="22" viewBox="0 0 22 22" fill="none" xmlns="http://www.w3.org/2000/svg">
<mask id="mask0_2049_15805" style="mask-type:alpha" maskUnits="userSpaceOnUse" x="0" y="0" width="22" height="22">
<rect width="22" height="22" fill="#D9D9D9"/>
</mask>
<g mask="url(#mask0_2049_15805)">
<path d="M4.125 19.7087V7.54518C4.125 7.08807 4.28687 6.69764 4.6106 6.37391C4.93449 6.05002 5.32499 5.88808 5.7821 5.88808H12.6835C13.1406 5.88808 13.5311 6.05002 13.855 6.37391C14.1787 6.69764 14.3406 7.08807 14.3406 7.54518V19.7087L9.23725 17.1172L4.125 19.7087ZM5.5 17.588L9.23725 15.6084L12.9656 17.588V7.54518C12.9656 7.46298 12.9391 7.39538 12.8863 7.34237C12.8334 7.28951 12.7658 7.26308 12.6835 7.26308H5.7821C5.69976 7.26308 5.63215 7.28951 5.57929 7.34237C5.52643 7.39538 5.5 7.46298 5.5 7.54518V17.588ZM16.5 16.2448V3.9491C16.5 3.86675 16.4736 3.79915 16.4207 3.74628C16.3678 3.69342 16.3002 3.66699 16.2179 3.66699H6.77806V2.29199H16.2179C16.675 2.29199 17.0655 2.45386 17.3894 2.7776C17.7131 3.10149 17.875 3.49199 17.875 3.9491V16.2448H16.5Z" fill="#1C1B1F"/>
</g>
</svg>
