<svg width="22" height="23" viewBox="0 0 22 23" fill="none" xmlns="http://www.w3.org/2000/svg">
<path d="M21.0456 16.5108V19.5526C21.0467 19.835 20.9888 20.1145 20.8754 20.3732C20.7621 20.632 20.5958 20.8642 20.3873 21.0551C20.1788 21.246 19.9327 21.3913 19.6647 21.4818C19.3966 21.5723 19.1126 21.6059 18.8308 21.5805C15.7046 21.2414 12.7016 20.1753 10.0632 18.4677C7.60851 16.911 5.52735 14.8339 3.96753 12.3841C2.25056 9.73894 1.18206 6.72735 0.848578 3.59329C0.82319 3.3129 0.856579 3.03031 0.946617 2.76351C1.03666 2.49671 1.18137 2.25154 1.37155 2.04361C1.56173 1.83569 1.79321 1.66956 2.05125 1.55581C2.30928 1.44206 2.58822 1.38318 2.87031 1.38291H5.91815C6.4112 1.37807 6.88918 1.55232 7.26302 1.87318C7.63686 2.19404 7.88104 2.63963 7.95004 3.12688C8.07868 4.10032 8.31726 5.05611 8.66121 5.97603C8.79789 6.33894 8.82748 6.73335 8.74645 7.11253C8.66542 7.4917 8.47718 7.83975 8.20403 8.11543L6.91378 9.40312C8.36003 11.9416 10.466 14.0433 13.0095 15.4867L14.2997 14.199C14.5759 13.9264 14.9247 13.7386 15.3046 13.6577C15.6845 13.5768 16.0797 13.6063 16.4434 13.7428C17.3651 14.086 18.3228 14.3241 19.2982 14.4525C19.7917 14.522 20.2424 14.7701 20.5646 15.1496C20.8868 15.5291 21.058 16.0135 21.0456 16.5108Z" stroke="#07A7C9" stroke-width="1.06347" stroke-linecap="round" stroke-linejoin="round"/>
</svg>
