<svg width="68" height="68" viewBox="0 0 68 68" fill="none" xmlns="http://www.w3.org/2000/svg">
<mask id="mask0_16_8888" style="mask-type:alpha" maskUnits="userSpaceOnUse" x="0" y="0" width="68" height="68">
<rect width="68" height="68" fill="#D9D9D9"/>
</mask>
<g mask="url(#mask0_16_8888)">
<path d="M50.891 36.1258V31.8758H61.1349V36.1258H50.891ZM54.1274 55.1963L45.9327 49.0501L48.5152 45.6614L56.7099 51.8069L54.1274 55.1963ZM48.4062 22.2319L45.8236 18.8425L54.0183 12.6963L56.6016 16.0857L48.4062 22.2319ZM14.8751 52.363V41.3023H11.9872C10.5743 41.3023 9.36754 40.8018 8.3669 39.8007C7.36579 38.8 6.86523 37.5933 6.86523 36.1804V31.8213C6.86523 30.4084 7.36579 29.2016 8.3669 28.201C9.36754 27.1999 10.5743 26.6993 11.9872 26.6993H22.9394L35.6349 19.1258V48.8758L22.9394 41.3023H19.1251V52.363H14.8751ZM31.3849 41.3243V26.6774L24.116 30.9493H11.9872C11.7695 30.9493 11.5697 31.0402 11.3879 31.222C11.2061 31.4038 11.1152 31.6036 11.1152 31.8213V36.1804C11.1152 36.3981 11.2061 36.5978 11.3879 36.7796C11.5697 36.9614 11.7695 37.0523 11.9872 37.0523H24.116L31.3849 41.3243ZM39.5577 42.8387V25.163C40.6693 26.1693 41.5646 27.4369 42.2437 28.966C42.9232 30.4955 43.2629 32.1738 43.2629 34.0008C43.2629 35.8279 42.9232 37.5061 42.2437 39.0357C41.5646 40.5647 40.6693 41.8324 39.5577 42.8387Z" fill="url(#paint0_linear_16_8888)"/>
</g>
<defs>
<linearGradient id="paint0_linear_16_8888" x1="34.0001" y1="12.6963" x2="34.0001" y2="55.1963" gradientUnits="userSpaceOnUse">
<stop stop-color="#1BDACF"/>
<stop offset="1" stop-color="#07A7C9"/>
</linearGradient>
</defs>
</svg>
