<svg width="32" height="32" viewBox="0 0 32 32" fill="none" xmlns="http://www.w3.org/2000/svg">
<mask id="mask0_1_3391" style="mask-type:alpha" maskUnits="userSpaceOnUse" x="0" y="0" width="32" height="32">
<rect x="0.19751" y="0.0820312" width="31.1185" height="31.1185" fill="#D9D9D9"/>
</mask>
<g mask="url(#mask0_1_3391)">
<path d="M10.4198 13.3456L15.756 4.5686L21.0922 13.3456H10.4198ZM22.8873 27.6083C21.5326 27.6083 20.3877 27.1407 19.4526 26.2057C18.5175 25.2706 18.05 24.1257 18.05 22.771C18.05 21.4162 18.5175 20.2713 19.4526 19.3363C20.3877 18.4012 21.5326 17.9337 22.8873 17.9337C24.242 17.9337 25.3869 18.4012 26.322 19.3363C27.2571 20.2713 27.7246 21.4162 27.7246 22.771C27.7246 24.1257 27.2571 25.2706 26.322 26.2057C25.3869 27.1407 24.242 27.6083 22.8873 27.6083ZM5.08398 26.96V18.582H13.462V26.96H5.08398ZM22.8867 26.3117C23.8779 26.3117 24.716 25.9695 25.4008 25.2851C26.0856 24.6007 26.428 23.7629 26.428 22.7716C26.428 21.7804 26.0858 20.9423 25.4014 20.2575C24.717 19.5727 23.8792 19.2303 22.888 19.2303C21.8967 19.2303 21.0587 19.5725 20.3738 20.2568C19.689 20.9412 19.3466 21.7791 19.3466 22.7703C19.3466 23.7616 19.6888 24.5996 20.3732 25.2844C21.0576 25.9692 21.8954 26.3117 22.8867 26.3117ZM6.38059 25.6634H12.1654V19.8786H6.38059V25.6634ZM12.6792 12.049H18.8328L15.756 7.11708L12.6792 12.049Z" fill="#07A7C9"/>
</g>
</svg>
