<svg width="23" height="24" viewBox="0 0 23 24" fill="none" xmlns="http://www.w3.org/2000/svg">
<path d="M11.6343 2.59961C6.48222 2.59961 2.30078 6.87355 2.30078 12.1397C2.30078 17.4058 6.48222 21.6797 11.6343 21.6797C16.7865 21.6797 20.9679 17.4058 20.9679 12.1397C20.9679 6.87355 16.7865 2.59961 11.6343 2.59961ZM11.6343 19.7717C7.51824 19.7717 4.16749 16.3468 4.16749 12.1397C4.16749 7.93249 7.51824 4.50762 11.6343 4.50762C15.7504 4.50762 19.1012 7.93249 19.1012 12.1397C19.1012 16.3468 15.7504 19.7717 11.6343 19.7717ZM15.9184 7.92295L9.76763 14.2098L7.35024 11.7485L6.03421 13.0937L9.76763 16.9097L17.2345 9.27764L15.9184 7.92295Z" fill="#49D48E"/>
</svg>
