<svg width="21" height="20" viewBox="0 0 21 20" fill="none" xmlns="http://www.w3.org/2000/svg">
<path d="M10.5 2.5H16.3333C16.7754 2.5 17.1993 2.67559 17.5118 2.98816C17.8244 3.30072 18 3.72464 18 4.16667V15.8333C18 16.2754 17.8244 16.6993 17.5118 17.0118C17.1993 17.3244 16.7754 17.5 16.3333 17.5H10.5M10.5 2.5H4.66667C4.22464 2.5 3.80072 2.67559 3.48816 2.98816C3.17559 3.30072 3 3.72464 3 4.16667V15.8333C3 16.2754 3.17559 16.6993 3.48816 17.0118C3.80072 17.3244 4.22464 17.5 4.66667 17.5H10.5M10.5 2.5V17.5" stroke="#303030" stroke-width="1.5" stroke-linecap="round" stroke-linejoin="round"/>
</svg>
