<svg width="34" height="34" viewBox="0 0 34 34" fill="none" xmlns="http://www.w3.org/2000/svg">
<mask id="mask0_2283_8347" style="mask-type:alpha" maskUnits="userSpaceOnUse" x="0" y="0" width="34" height="34">
<rect x="0.480469" y="0.621094" width="33.1482" height="33.1482" fill="#D9D9D9"/>
</mask>
<g mask="url(#mask0_2283_8347)">
<path d="M12.9114 22.7203C13.671 22.7203 14.3214 22.4498 14.8623 21.9088C15.4033 21.3679 15.6738 20.7176 15.6738 19.9579C15.6738 19.1983 15.4033 18.548 14.8623 18.007C14.3214 17.466 13.671 17.1956 12.9114 17.1956C12.1518 17.1956 11.5014 17.466 10.9605 18.007C10.4195 18.548 10.149 19.1983 10.149 19.9579C10.149 20.7176 10.4195 21.3679 10.9605 21.9088C11.5014 22.4498 12.1518 22.7203 12.9114 22.7203ZM21.1985 22.7203C21.9581 22.7203 22.6084 22.4498 23.1494 21.9088C23.6903 21.3679 23.9608 20.7176 23.9608 19.9579C23.9608 19.1983 23.6903 18.548 23.1494 18.007C22.6084 17.466 21.9581 17.1956 21.1985 17.1956C20.4388 17.1956 19.7885 17.466 19.2475 18.007C18.7066 18.548 18.4361 19.1983 18.4361 19.9579C18.4361 20.7176 18.7066 21.3679 19.2475 21.9088C19.7885 22.4498 20.4388 22.7203 21.1985 22.7203ZM17.0549 15.8144C17.8146 15.8144 18.4649 15.5439 19.0058 15.0029C19.5468 14.462 19.8173 13.8117 19.8173 13.052C19.8173 12.2924 19.5468 11.6421 19.0058 11.1011C18.4649 10.5602 17.8146 10.2897 17.0549 10.2897C16.2953 10.2897 15.645 10.5602 15.104 11.1011C14.5631 11.6421 14.2926 12.2924 14.2926 13.052C14.2926 13.8117 14.5631 14.462 15.104 15.0029C15.645 15.5439 16.2953 15.8144 17.0549 15.8144ZM17.0549 31.0073C15.1443 31.0073 13.3488 30.6448 11.6683 29.9196C9.98791 29.1945 8.52616 28.2104 7.28311 26.9674C6.04005 25.7243 5.05596 24.2626 4.33084 22.5821C3.60572 20.9017 3.24316 19.1062 3.24316 17.1956C3.24316 15.2849 3.60572 13.4894 4.33084 11.809C5.05596 10.1285 6.04005 8.66679 7.28311 7.42373C8.52616 6.18067 9.98791 5.19658 11.6683 4.47147C13.3488 3.74635 15.1443 3.38379 17.0549 3.38379C18.9656 3.38379 20.7611 3.74635 22.4415 4.47147C24.122 5.19658 25.5837 6.18067 26.8268 7.42373C28.0698 8.66679 29.0539 10.1285 29.779 11.809C30.5041 13.4894 30.8667 15.2849 30.8667 17.1956C30.8667 19.1062 30.5041 20.9017 29.779 22.5821C29.0539 24.2626 28.0698 25.7243 26.8268 26.9674C25.5837 28.2104 24.122 29.1945 22.4415 29.9196C20.7611 30.6448 18.9656 31.0073 17.0549 31.0073ZM17.0549 28.245C20.1396 28.245 22.7523 27.1746 24.8931 25.0337C27.0339 22.8929 28.1043 20.2802 28.1043 17.1956C28.1043 14.1109 27.0339 11.4982 24.8931 9.35738C22.7523 7.21655 20.1396 6.14614 17.0549 6.14614C13.9703 6.14614 11.3576 7.21655 9.21675 9.35738C7.07593 11.4982 6.00552 14.1109 6.00552 17.1956C6.00552 20.2802 7.07593 22.8929 9.21675 25.0337C11.3576 27.1746 13.9703 28.245 17.0549 28.245Z" fill="#1C1B1F"/>
</g>
</svg>
