<svg width="41" height="41" viewBox="0 0 41 41" fill="none" xmlns="http://www.w3.org/2000/svg">
<mask id="mask0_2274_4937" style="mask-type:alpha" maskUnits="userSpaceOnUse" x="0" y="0" width="41" height="42">
<rect x="0.238281" y="0.728516" width="40.2741" height="40.2741" fill="#D9D9D9"/>
</mask>
<g mask="url(#mask0_2274_4937)">
<path d="M20.3766 37.6462C18.0552 37.6462 15.8737 37.2057 13.832 36.3247C11.7904 35.4437 10.0144 34.2481 8.50411 32.7378C6.99383 31.2275 5.79819 29.4515 4.9172 27.4099C4.0362 25.3682 3.5957 23.1867 3.5957 20.8653C3.5957 18.544 4.0362 16.3625 4.9172 14.3208C5.79819 12.2791 6.99383 10.5032 8.50411 8.99288C10.0144 7.4826 11.7904 6.28696 13.832 5.40597C15.8737 4.52497 18.0552 4.08447 20.3766 4.08447C22.6979 4.08447 24.8794 4.52497 26.9211 5.40597C28.9628 6.28696 30.7388 7.4826 32.249 8.99288C33.7593 10.5032 34.9549 12.2791 35.8359 14.3208C36.7169 16.3625 37.1574 18.544 37.1574 20.8653C37.1574 23.1867 36.7169 25.3682 35.8359 27.4099C34.9549 29.4515 33.7593 31.2275 32.249 32.7378C30.7388 34.2481 28.9628 35.4437 26.9211 36.3247C24.8794 37.2057 22.6979 37.6462 20.3766 37.6462ZM22.0547 34.1642C25.3829 33.7447 28.1727 32.2833 30.4241 29.7802C32.6755 27.277 33.8013 24.3054 33.8013 20.8653C33.8013 17.4253 32.6755 14.4536 30.4241 11.9505C28.1727 9.44736 25.3829 7.98602 22.0547 7.5665V34.1642Z" fill="#1C1B1F"/>
</g>
</svg>
