<svg width="34" height="34" viewBox="0 0 34 34" fill="none" xmlns="http://www.w3.org/2000/svg">
<mask id="mask0_2283_8350" style="mask-type:alpha" maskUnits="userSpaceOnUse" x="0" y="0" width="34" height="34">
<rect x="0.480469" y="0.724609" width="33.1482" height="33.1482" fill="#D9D9D9"/>
</mask>
<g mask="url(#mask0_2283_8350)">
<path d="M17.0543 32.4914C14.4761 32.4914 12.1051 31.9044 9.94121 30.7304C7.77737 29.5564 6.00486 27.991 4.62368 26.0344V29.729H1.86133V21.4419H10.1484V24.2043H6.72998C7.83492 25.8617 9.29091 27.1968 11.0979 28.2097C12.905 29.2226 14.8904 29.729 17.0543 29.729C18.7807 29.729 20.3979 29.401 21.9057 28.7449C23.4134 28.0889 24.7256 27.2026 25.842 26.0861C26.9585 24.9697 27.8447 23.6576 28.5008 22.1498C29.1568 20.642 29.4849 19.0249 29.4849 17.2984H32.2472C32.2472 19.3932 31.8501 21.3614 31.0559 23.2029C30.2618 25.0445 29.1741 26.6559 27.7929 28.0371C26.4117 29.4182 24.8004 30.5059 22.9588 31.3001C21.1172 32.0943 19.1491 32.4914 17.0543 32.4914ZM15.8112 26.9666V25.1711C14.7293 24.9179 13.8488 24.4518 13.1697 23.7727C12.4906 23.0936 11.99 22.2016 11.6677 21.0966L13.9466 20.1989C14.2229 21.1427 14.6545 21.8505 15.2415 22.3224C15.8285 22.7943 16.5018 23.0303 17.2614 23.0303C18.0211 23.0303 18.6714 22.8519 19.2124 22.4951C19.7533 22.1383 20.0238 21.5801 20.0238 20.8204C20.0238 20.1528 19.7418 19.6119 19.1778 19.1975C18.6138 18.7832 17.6067 18.3113 16.1565 17.7818C14.7983 17.2984 13.8027 16.7229 13.1697 16.0554C12.5367 15.3878 12.2202 14.513 12.2202 13.4311C12.2202 12.4873 12.5482 11.6298 13.2042 10.8587C13.8603 10.0875 14.7523 9.58684 15.8803 9.35665V7.63017H18.2973V9.35665C19.126 9.4257 19.8799 9.75949 20.559 10.358C21.2381 10.9565 21.7042 11.6586 21.9574 12.4643L19.7476 13.3621C19.5634 12.8326 19.2642 12.3895 18.8498 12.0327C18.4354 11.6759 17.86 11.4975 17.1233 11.4975C16.3176 11.4975 15.7019 11.6701 15.276 12.0154C14.8501 12.3607 14.6372 12.8326 14.6372 13.4311C14.6372 14.0296 14.9019 14.5015 15.4314 14.8468C15.9608 15.1921 16.9162 15.595 18.2973 16.0554C19.9547 16.6539 21.0597 17.356 21.6122 18.1616C22.1646 18.9673 22.4409 19.8536 22.4409 20.8204C22.4409 21.488 22.3258 22.075 22.0956 22.5814C21.8654 23.0878 21.5604 23.5195 21.1805 23.8763C20.8007 24.2331 20.3576 24.5208 19.8512 24.7395C19.3447 24.9582 18.8038 25.1251 18.2283 25.2402V26.9666H15.8112ZM1.86133 17.2984C1.86133 15.2036 2.25842 13.2354 3.05259 11.3939C3.84677 9.55231 4.93445 7.94094 6.31562 6.55976C7.6968 5.17859 9.30817 4.09091 11.1497 3.29673C12.9913 2.50256 14.9595 2.10547 17.0543 2.10547C19.6325 2.10547 22.0035 2.69247 24.1673 3.86647C26.3312 5.04047 28.1037 6.6058 29.4849 8.56247V4.86782H32.2472V13.1549H23.9602V10.3925H27.3786C26.2736 8.73512 24.8176 7.39998 23.0106 6.38712C21.2036 5.37425 19.2181 4.86782 17.0543 4.86782C15.3278 4.86782 13.7107 5.19585 12.2029 5.85191C10.6951 6.50797 9.38299 7.39422 8.26653 8.51067C7.15008 9.62713 6.26383 10.9392 5.60777 12.447C4.95171 13.9548 4.62368 15.5719 4.62368 17.2984H1.86133Z" fill="#1C1B1F"/>
</g>
</svg>
