<svg width="29" height="29" viewBox="0 0 29 29" fill="none" xmlns="http://www.w3.org/2000/svg">
<mask id="mask0_1_3399" style="mask-type:alpha" maskUnits="userSpaceOnUse" x="0" y="0" width="29" height="29">
<rect width="28.7247" height="28.7247" fill="#D9D9D9"/>
</mask>
<g mask="url(#mask0_1_3399)">
<path d="M10.9787 25.9635C10.0611 25.9635 9.25751 25.6857 8.56792 25.1302C7.87813 24.5748 7.40277 23.8629 7.14186 22.9944C6.89949 23.3979 6.56467 23.7067 6.13739 23.9208C5.70991 24.1348 5.25989 24.2418 4.78733 24.2418C3.95411 24.2418 3.24716 23.9509 2.66648 23.369C2.08561 22.7873 1.79517 22.0809 1.79517 21.2497C1.79517 20.5146 2.05139 19.8452 2.56385 19.2416C3.07631 18.6378 3.72311 18.332 4.50427 18.3242C4.10212 17.956 3.78406 17.5129 3.55007 16.9951C3.31608 16.4773 3.19909 15.9383 3.19909 15.3781C3.19909 14.7141 3.36136 14.0916 3.68591 13.5107C4.01046 12.9297 4.46507 12.4504 5.04974 12.073C5.1042 12.2495 5.1776 12.4382 5.26996 12.6391C5.36252 12.8402 5.45717 13.0213 5.55392 13.1825C5.18249 13.4632 4.90163 13.7978 4.71133 14.1864C4.52102 14.5747 4.42587 14.982 4.42587 15.4081C4.42587 16.6478 4.88467 17.4472 5.80227 17.8063C6.71986 18.1653 7.66439 18.44 8.63584 18.6303L8.90514 19.1046C8.68571 19.7429 8.50768 20.2826 8.37104 20.7236C8.23439 21.1649 8.16607 21.5727 8.16607 21.9471C8.16607 22.6928 8.43627 23.3453 8.97665 23.9046C9.51703 24.4639 10.1767 24.7436 10.9557 24.7436C11.8058 24.7436 12.5033 24.4236 13.0481 23.7837C13.5927 23.144 14.0399 22.3845 14.3898 21.5052C14.7397 20.6259 15.0109 19.7214 15.2036 18.7916C15.3961 17.8616 15.5576 17.1013 15.6881 16.5107L16.8712 16.8398C16.707 17.6299 16.5105 18.5498 16.2817 19.5995C16.0531 20.6489 15.7275 21.6436 15.3048 22.5836C14.8821 23.5233 14.3274 24.3216 13.6408 24.9785C12.954 25.6352 12.0667 25.9635 10.9787 25.9635ZM4.78733 23.045C5.27984 23.045 5.70223 22.8689 6.05451 22.5168C6.40658 22.1646 6.58262 21.7422 6.58262 21.2497C6.58262 20.7571 6.40658 20.3348 6.05451 19.9825C5.70223 19.6304 5.27984 19.4544 4.78733 19.4544C4.29482 19.4544 3.87242 19.6304 3.52015 19.9825C3.16807 20.3348 2.99203 20.7571 2.99203 21.2497C2.99203 21.7422 3.16807 22.1646 3.52015 22.5168C3.87242 22.8689 4.29482 23.045 4.78733 23.045ZM12.0652 18.1103C11.2551 17.3844 10.5143 16.7058 9.84288 16.0744C9.17164 15.4431 8.59166 14.8239 8.10294 14.2169C7.61422 13.6101 7.2387 13.0033 6.97639 12.3965C6.71388 11.7894 6.58262 11.1576 6.58262 10.5009C6.58262 9.37268 6.96881 8.42237 7.74119 7.64999C8.51356 6.87761 9.46387 6.49143 10.5921 6.49143C10.8099 6.49143 11.0063 6.50409 11.1813 6.52943C11.3562 6.55476 11.522 6.59047 11.6786 6.63654C11.5834 6.45243 11.5082 6.26302 11.453 6.06833C11.3977 5.87384 11.3701 5.66958 11.3701 5.45554C11.3701 4.62452 11.6607 3.91807 12.242 3.33619C12.8233 2.75432 13.5291 2.46338 14.3595 2.46338C15.19 2.46338 15.8967 2.75432 16.4798 3.33619C17.0629 3.91807 17.3544 4.62452 17.3544 5.45554C17.3544 5.67496 17.3268 5.87943 17.2715 6.06893C17.2163 6.25844 17.1411 6.44535 17.0459 6.62966C17.2025 6.58358 17.3683 6.54897 17.5432 6.52584C17.7181 6.5029 17.9145 6.49143 18.1324 6.49143C19.0376 6.49143 19.8286 6.74885 20.5054 7.2637C21.1821 7.77855 21.6463 8.43563 21.898 9.23494C21.7099 9.20581 21.4982 9.19125 21.2631 9.19125C21.0281 9.19125 20.8131 9.20352 20.6182 9.22806C20.4018 8.76926 20.0746 8.39793 19.6365 8.11407C19.1985 7.83022 18.7005 7.68829 18.1425 7.68829C17.3915 7.68829 16.7947 7.88128 16.352 8.26727C15.9094 8.65306 15.3336 9.25798 14.6247 10.082H14.0699C13.341 9.23344 12.7552 8.62234 12.3126 8.24872C11.87 7.8751 11.2965 7.68829 10.5921 7.68829C9.78124 7.68829 9.1098 7.95439 8.5778 8.4866C8.04559 9.0186 7.77949 9.69004 7.77949 10.5009C7.77949 10.9647 7.89768 11.4436 8.13406 11.9375C8.37024 12.4314 8.71005 12.9526 9.15349 13.5012C9.59712 14.0497 10.135 14.6332 10.7672 15.2516C11.3993 15.87 12.1166 16.5382 12.9191 17.2563L12.0652 18.1103ZM14.3622 7.25084C14.8547 7.25084 15.2771 7.0748 15.6294 6.72272C15.9815 6.37064 16.1575 5.94825 16.1575 5.45554C16.1575 4.96303 15.9815 4.54074 15.6294 4.18866C15.2771 3.83638 14.8547 3.66024 14.3622 3.66024C13.8697 3.66024 13.4473 3.83638 13.0951 4.18866C12.743 4.54074 12.5669 4.96303 12.5669 5.45554C12.5669 5.94825 12.743 6.37064 13.0951 6.72272C13.4473 7.0748 13.8697 7.25084 14.3622 7.25084ZM17.6698 25.9865C17.3857 25.9865 17.105 25.9561 16.8275 25.8953C16.55 25.8346 16.2822 25.7385 16.0241 25.6068C16.135 25.4634 16.2459 25.2944 16.3568 25.0997C16.4677 24.905 16.5686 24.7256 16.6593 24.5617C16.8365 24.6353 17.0137 24.6879 17.191 24.7194C17.3682 24.7509 17.5454 24.7666 17.7227 24.7666C18.4991 24.7666 19.1631 24.4877 19.7146 23.9297C20.2664 23.372 20.5422 22.7088 20.5422 21.9402C20.5422 21.5658 20.4739 21.1619 20.3373 20.7284C20.2008 20.295 20.0229 19.7591 19.8035 19.1207L20.0958 18.6465C21.087 18.4562 22.0364 18.1777 22.9441 17.8111C23.8517 17.4442 24.3055 16.6409 24.3055 15.4012C24.3055 14.4345 23.9652 13.7179 23.2846 13.2513C22.6041 12.7849 21.8381 12.5517 20.9863 12.5517C20.182 12.5517 19.2437 12.6883 18.1713 12.9614C17.0989 13.2345 15.8606 13.605 14.4565 14.073L14.1274 12.8902C15.4992 12.4527 16.734 12.0798 17.8319 11.7714C18.9297 11.463 19.9374 11.3088 20.8552 11.3088C22.0629 11.3088 23.1392 11.6641 24.0844 12.3746C25.0297 13.0849 25.5024 14.0938 25.5024 15.4012C25.5024 15.9547 25.3891 16.4806 25.1627 16.9786C24.9365 17.4767 24.6224 17.9253 24.2202 18.3242C25.0014 18.3474 25.6482 18.6532 26.1606 19.2416C26.6731 19.8301 26.9293 20.4994 26.9293 21.2497C26.9293 22.0629 26.6389 22.765 26.058 23.3558C25.4773 23.9465 24.7704 24.2418 23.9372 24.2418C23.4646 24.2418 23.0146 24.1348 22.5871 23.9208C22.1598 23.7067 21.825 23.3979 21.5826 22.9944C21.3217 23.8629 20.8387 24.5787 20.1335 25.1419C19.4286 25.705 18.6073 25.9865 17.6698 25.9865ZM23.9671 23.045C24.4596 23.045 24.877 22.8689 25.2193 22.5168C25.5614 22.1646 25.7324 21.7422 25.7324 21.2497C25.7324 20.7571 25.5564 20.3298 25.2043 19.9675C24.8521 19.6055 24.4297 19.4244 23.9372 19.4244C23.4446 19.4244 23.0223 19.6005 22.67 19.9526C22.3179 20.3048 22.1419 20.7272 22.1419 21.2197C22.1419 21.7122 22.3229 22.1396 22.6849 22.5019C23.0472 22.8639 23.4746 23.045 23.9671 23.045Z" fill="#07A7C9"/>
</g>
</svg>
