<svg width="80" height="80" viewBox="0 0 80 80" fill="none" xmlns="http://www.w3.org/2000/svg">
<path d="M63.3333 16.6667H56.6667V10H23.3333V16.6667H16.6667C13 16.6667 10 19.6667 10 23.3333V26.6667C10 35.1667 16.4 42.1 24.6333 43.1333C26.7333 48.1333 31.2333 51.9 36.6667 53V63.3333H23.3333V70H56.6667V63.3333H43.3333V53C48.7667 51.9 53.2667 48.1333 55.3667 43.1333C63.6 42.1 70 35.1667 70 26.6667V23.3333C70 19.6667 67 16.6667 63.3333 16.6667ZM16.6667 26.6667V23.3333H23.3333V36.0667C19.4667 34.6667 16.6667 31 16.6667 26.6667ZM40 46.6667C34.5 46.6667 30 42.1667 30 36.6667V16.6667H50V36.6667C50 42.1667 45.5 46.6667 40 46.6667ZM63.3333 26.6667C63.3333 31 60.5333 34.6667 56.6667 36.0667V23.3333H63.3333V26.6667Z" fill="#0DAD75"/>
</svg>
