<svg width="12" height="12" viewBox="0 0 12 12" fill="none" xmlns="http://www.w3.org/2000/svg">
<path d="M11.7507 8.67217L7.51165 0.862425C6.83058 -0.286712 5.17034 -0.288238 4.48835 0.862425L0.249536 8.67217C-0.446698 9.84639 0.396232 11.3333 1.76083 11.3333H10.239C11.6025 11.3333 12.4469 9.84759 11.7507 8.67217ZM6 9.92395C5.61239 9.92395 5.29687 9.60774 5.29687 9.21926C5.29687 8.83079 5.61239 8.51458 6 8.51458C6.38761 8.51458 6.70312 8.83079 6.70312 9.21926C6.70312 9.60774 6.38761 9.92395 6 9.92395ZM6.70312 7.1052C6.70312 7.49367 6.38761 7.80989 6 7.80989C5.61239 7.80989 5.29687 7.49367 5.29687 7.1052V3.58175C5.29687 3.19328 5.61239 2.87706 6 2.87706C6.38761 2.87706 6.70312 3.19328 6.70312 3.58175V7.1052Z" fill="#EE0423"/>
</svg>
