<svg width="20" height="20" viewBox="0 0 20 20" fill="none" xmlns="http://www.w3.org/2000/svg">
<path d="M15.8738 12.8047C16.3905 11.577 16.5094 10.2183 16.2139 8.91955C15.9184 7.6208 15.2232 6.44734 14.2262 5.56413C13.2292 4.68093 11.9805 4.1324 10.6556 3.99568C9.33065 3.85895 7.9962 4.14089 6.83984 4.80188L6.04991 3.41871C7.2584 2.72801 8.62688 2.3663 10.0188 2.36965C11.4107 2.37301 12.7775 2.74131 13.9826 3.43782C17.558 5.50182 18.9276 9.92127 17.261 13.6065L18.3296 14.2229L15.013 15.9859L14.8816 12.2321L15.8738 12.8047ZM4.12845 7.86284C3.61177 9.09049 3.49283 10.4492 3.78836 11.7479C4.0839 13.0467 4.77903 14.2202 5.77604 15.1034C6.77306 15.9866 8.0218 16.5351 9.34671 16.6718C10.6716 16.8085 12.0061 16.5266 13.1624 15.8656L13.9524 17.2488C12.7439 17.9395 11.3754 18.3012 9.98345 18.2978C8.59152 18.2945 7.2248 17.9262 6.01965 17.2297C2.44428 15.1657 1.07465 10.7462 2.7413 7.06097L1.67188 6.44543L4.98845 4.68243L5.11984 8.43617L4.12765 7.86364L4.12845 7.86284ZM11.1279 12.5857L8.87358 10.3337L6.62165 12.5857L5.49569 11.4597L8.87437 8.08182L11.1271 10.3337L13.3798 8.08182L14.5058 9.20778L11.1271 12.5857H11.1279Z" fill="white"/>
</svg>
