<svg width="31" height="30" viewBox="0 0 31 30" fill="none" xmlns="http://www.w3.org/2000/svg">
<path d="M15.4446 19.8301C18.2879 19.8301 20.5928 17.6106 20.5928 14.8726C20.5928 12.1346 18.2879 9.91504 15.4446 9.91504C12.6013 9.91504 10.2964 12.1346 10.2964 14.8726C10.2964 17.6106 12.6013 19.8301 15.4446 19.8301Z" stroke="#07A7C9" stroke-width="1.14405" stroke-linecap="round" stroke-linejoin="round"/>
<path d="M20.593 9.91503V16.112C20.593 17.0981 20.9998 18.0438 21.7239 18.7411C22.448 19.4384 23.4301 19.8301 24.4541 19.8301C25.4782 19.8301 26.4603 19.4384 27.1844 18.7411C27.9085 18.0438 28.3153 17.0981 28.3153 16.112V14.8726C28.3151 12.0753 27.3323 9.36038 25.5266 7.16921C23.7209 4.97805 21.1986 3.43953 18.3698 2.80381C15.5409 2.1681 12.572 2.47258 9.94563 3.66775C7.31929 4.86292 5.19003 6.87848 3.90409 9.38671C2.61814 11.8949 2.25114 14.7483 2.86275 17.4829C3.47436 20.2174 5.02861 22.6723 7.27279 24.4484C9.51696 26.2245 12.3191 27.2173 15.2235 27.2654C18.1279 27.3135 20.9638 26.414 23.2701 24.7133" stroke="#07A7C9" stroke-width="1.14405" stroke-linecap="round" stroke-linejoin="round"/>
</svg>
