<svg width="29" height="27" viewBox="0 0 29 27" fill="none" xmlns="http://www.w3.org/2000/svg">
<path d="M23.8342 7.6748H4.76673C3.4504 7.6748 2.3833 8.65654 2.3833 9.86756V20.8313C2.3833 22.0424 3.4504 23.0241 4.76673 23.0241H23.8342C25.1505 23.0241 26.2176 22.0424 26.2176 20.8313V9.86756C26.2176 8.65654 25.1505 7.6748 23.8342 7.6748Z" stroke="#07A7C9" stroke-width="1.14405" stroke-linecap="round" stroke-linejoin="round"/>
<path d="M19.0674 23.0239V5.48182C19.0674 4.90026 18.8163 4.34253 18.3693 3.93131C17.9223 3.52008 17.3161 3.28906 16.684 3.28906H11.9171C11.285 3.28906 10.6788 3.52008 10.2318 3.93131C9.7848 4.34253 9.53369 4.90026 9.53369 5.48182V23.0239" stroke="#07A7C9" stroke-width="1.14405" stroke-linecap="round" stroke-linejoin="round"/>
</svg>
