<svg width="26" height="26" viewBox="0 0 26 26" fill="none" xmlns="http://www.w3.org/2000/svg">
<path d="M9.74984 20.5832C4.33317 22.2082 4.33317 17.8749 2.1665 17.3332M17.3332 23.8332V19.6407C17.3738 19.1242 17.304 18.6048 17.1284 18.1173C16.9529 17.6298 16.6755 17.1853 16.3148 16.8132C19.7165 16.4341 23.2915 15.1449 23.2915 9.22989C23.2912 7.71737 22.7094 6.26286 21.6665 5.16739C22.1603 3.84411 22.1254 2.38144 21.569 1.08323C21.569 1.08323 20.2907 0.704058 17.3332 2.68656C14.8502 2.01362 12.2328 2.01362 9.74984 2.68656C6.79234 0.704058 5.514 1.08323 5.514 1.08323C4.95758 2.38144 4.92266 3.84411 5.4165 5.16739C4.36581 6.27098 3.7834 7.73864 3.7915 9.26239C3.7915 15.1341 7.3665 16.4232 10.7682 16.8457C10.4118 17.214 10.1369 17.6532 9.96142 18.1348C9.78597 18.6164 9.71388 19.1295 9.74984 19.6407V23.8332" stroke="#07A7C9" stroke-width="1.14405" stroke-linecap="round" stroke-linejoin="round"/>
</svg>
