<svg width="16" height="17" viewBox="0 0 16 17" fill="none" xmlns="http://www.w3.org/2000/svg">
<g clip-path="url(#clip0_1573_9644)">
<path d="M8.00065 15.5832C11.6825 15.5832 14.6673 12.4119 14.6673 8.49984C14.6673 4.58782 11.6825 1.4165 8.00065 1.4165C4.31875 1.4165 1.33398 4.58782 1.33398 8.49984C1.33398 12.4119 4.31875 15.5832 8.00065 15.5832Z" stroke="#333333" stroke-width="0.813156" stroke-linecap="round" stroke-linejoin="round"/>
<path d="M8 12.0415H8.00667" stroke="#333333" stroke-width="0.813156" stroke-linecap="round" stroke-linejoin="round"/>
<path d="M6.06055 6.37492C6.21728 5.90151 6.52665 5.50232 6.93385 5.24805C7.34105 4.99378 7.81981 4.90083 8.28533 4.98567C8.75085 5.07051 9.17309 5.32766 9.47726 5.71158C9.78144 6.0955 9.94792 6.58141 9.94721 7.08325C9.94721 8.49992 7.94721 9.20825 7.94721 9.20825" stroke="#333333" stroke-width="0.813156" stroke-linecap="round" stroke-linejoin="round"/>
</g>
<defs>
<clipPath id="clip0_1573_9644">
<rect width="16" height="17" fill="white"/>
</clipPath>
</defs>
</svg>
