<svg width="29" height="28" viewBox="0 0 29 28" fill="none" xmlns="http://www.w3.org/2000/svg">
<path d="M7.15017 10.2964H2.3833V24.025H7.15017V10.2964Z" stroke="#07A7C9" stroke-width="1.14405" stroke-linecap="round" stroke-linejoin="round"/>
<path d="M19.0675 9.15234C20.9639 9.15234 22.7826 9.87554 24.1236 11.1628C25.4645 12.4501 26.2178 14.1961 26.2178 16.0166V24.025H21.451V16.0166C21.451 15.4098 21.1999 14.8278 20.7529 14.3987C20.3059 13.9696 19.6997 13.7285 19.0675 13.7285C18.4354 13.7285 17.8292 13.9696 17.3822 14.3987C16.9352 14.8278 16.6841 15.4098 16.6841 16.0166V24.025H11.9172V16.0166C11.9172 14.1961 12.6706 12.4501 14.0115 11.1628C15.3525 9.87554 17.1712 9.15234 19.0675 9.15234V9.15234Z" stroke="#07A7C9" stroke-width="1.14405" stroke-linecap="round" stroke-linejoin="round"/>
<path d="M4.76673 6.86428C6.08307 6.86428 7.15017 5.83986 7.15017 4.57618C7.15017 3.3125 6.08307 2.28809 4.76673 2.28809C3.4504 2.28809 2.3833 3.3125 2.3833 4.57618C2.3833 5.83986 3.4504 6.86428 4.76673 6.86428Z" stroke="#07A7C9" stroke-width="1.14405" stroke-linecap="round" stroke-linejoin="round"/>
</svg>
