<svg width="28" height="28" viewBox="0 0 28 28" fill="none" xmlns="http://www.w3.org/2000/svg">
<path d="M26.8334 3.49952C25.7162 4.28758 24.4792 4.89032 23.1701 5.28452C22.4674 4.47662 21.5336 3.904 20.495 3.64411C19.4563 3.38421 18.3628 3.44959 17.3625 3.83139C16.3622 4.21319 15.5033 4.89299 14.9019 5.77886C14.3005 6.66473 13.9857 7.71392 14.0001 8.78452V9.95119C11.9498 10.0044 9.91823 9.54964 8.08626 8.62754C6.25428 7.70545 4.67878 6.3446 3.50008 4.66619C3.50008 4.66619 -1.16659 15.1662 9.33341 19.8329C6.9307 21.4638 4.06843 22.2816 1.16675 22.1662C11.6667 27.9995 24.5001 22.1662 24.5001 8.74952C24.499 8.42455 24.4678 8.10038 24.4067 7.78119C25.5975 6.60693 26.4377 5.12436 26.8334 3.49952V3.49952Z" stroke="#07A7C9" stroke-width="1.14405" stroke-linecap="round" stroke-linejoin="round"/>
</svg>
