<svg width="21" height="20" viewBox="0 0 21 20" fill="none" xmlns="http://www.w3.org/2000/svg">
<path d="M12.0013 1.66699H5.33464C4.89261 1.66699 4.46868 1.84259 4.15612 2.15515C3.84356 2.46771 3.66797 2.89163 3.66797 3.33366V16.667C3.66797 17.109 3.84356 17.5329 4.15612 17.8455C4.46868 18.1581 4.89261 18.3337 5.33464 18.3337H15.3346C15.7767 18.3337 16.2006 18.1581 16.5131 17.8455C16.8257 17.5329 17.0013 17.109 17.0013 16.667V6.66699L12.0013 1.66699Z" stroke="#303030" stroke-width="1.5" stroke-linecap="round" stroke-linejoin="round"/>
<path d="M12 1.66699V6.66699H17" stroke="#303030" stroke-width="1.5" stroke-linecap="round" stroke-linejoin="round"/>
<path d="M13.6667 10.833H7" stroke="#303030" stroke-width="1.5" stroke-linecap="round" stroke-linejoin="round"/>
<path d="M13.6667 14.167H7" stroke="#303030" stroke-width="1.5" stroke-linecap="round" stroke-linejoin="round"/>
<path d="M8.66667 7.5H7.83333H7" stroke="#303030" stroke-width="1.5" stroke-linecap="round" stroke-linejoin="round"/>
</svg>
