<svg width="61" height="61" viewBox="0 0 61 61" fill="none" xmlns="http://www.w3.org/2000/svg">
<mask id="mask0_2283_4946" style="mask-type:alpha" maskUnits="userSpaceOnUse" x="0" y="0" width="61" height="61">
<rect x="0.767578" y="0.636719" width="59.3906" height="59.3906" fill="#D9D9D9"/>
</mask>
<g mask="url(#mask0_2283_4946)">
<path d="M27.9873 52.6035L20.1304 45.5509C17.1609 42.87 14.6141 40.4779 12.4901 38.3745C10.366 36.2711 8.61317 34.2914 7.23152 32.4354C5.84986 30.5795 4.8394 28.7854 4.20012 27.0532C3.56085 25.3209 3.24121 23.5062 3.24121 21.609C3.24121 17.7321 4.54038 14.5048 7.13872 11.9271C9.73706 9.3494 12.9747 8.06055 16.8516 8.06055C18.9962 8.06055 21.0378 8.51423 22.9762 9.42158C24.9147 10.3289 26.585 11.6075 27.9873 13.2572C29.3896 11.6075 31.0599 10.3289 32.9984 9.42158C34.9368 8.51423 36.9784 8.06055 39.123 8.06055C42.4637 8.06055 45.2683 8.99884 47.5367 10.8754C49.8051 12.752 51.3517 15.1132 52.1766 17.959H46.918C46.1757 16.3092 45.0827 15.0719 43.6392 14.2471C42.1957 13.4222 40.6903 13.0098 39.123 13.0098C37.0196 13.0098 35.2049 13.5769 33.6789 14.7111C32.1529 15.8453 30.73 17.3403 29.4102 19.1963H26.5644C25.2858 17.3403 23.832 15.8453 22.2029 14.7111C20.5738 13.5769 18.79 13.0098 16.8516 13.0098C14.5007 13.0098 12.4694 13.8243 10.7578 15.4534C9.04623 17.0826 8.19043 19.1344 8.19043 21.609C8.19043 22.9701 8.47913 24.3517 9.05654 25.754C9.63395 27.1563 10.665 28.7751 12.1498 30.6104C13.6346 32.4457 15.6555 34.5904 18.2126 37.0444C20.7697 39.4984 24.0279 42.4576 27.9873 45.9221C29.0596 44.9734 30.3175 43.8805 31.7611 42.6432C33.2046 41.4059 34.3594 40.3748 35.2255 39.5499L38.7518 43.0763C37.8445 43.9011 36.6897 44.9219 35.2874 46.1386C33.8851 47.3553 32.6478 48.4379 31.5755 49.3865L27.9873 52.6035ZM45.3095 42.7051V35.2812H37.8857V30.332H45.3095V22.9082H50.2588V30.332H57.6826V35.2812H50.2588V42.7051H45.3095Z" fill="#1C1B1F"/>
</g>
</svg>
