<svg width="18" height="19" viewBox="0 0 18 19" fill="none" xmlns="http://www.w3.org/2000/svg">
<path d="M8.25 14.0137H9.75V12.5137H8.25V14.0137ZM9 2.01367C4.86 2.01367 1.5 5.37367 1.5 9.51367C1.5 13.6537 4.86 17.0137 9 17.0137C13.14 17.0137 16.5 13.6537 16.5 9.51367C16.5 5.37367 13.14 2.01367 9 2.01367ZM9 15.5137C5.6925 15.5137 3 12.8212 3 9.51367C3 6.20617 5.6925 3.51367 9 3.51367C12.3075 3.51367 15 6.20617 15 9.51367C15 12.8212 12.3075 15.5137 9 15.5137ZM9 5.01367C7.3425 5.01367 6 6.35617 6 8.01367H7.5C7.5 7.18867 8.175 6.51367 9 6.51367C9.825 6.51367 10.5 7.18867 10.5 8.01367C10.5 9.51367 8.25 9.32617 8.25 11.7637H9.75C9.75 10.0762 12 9.88867 12 8.01367C12 6.35617 10.6575 5.01367 9 5.01367Z" fill="#3D5F57"/>
</svg>
