<svg width="26" height="26" viewBox="0 0 26 26" fill="none" xmlns="http://www.w3.org/2000/svg">
<path d="M23.4115 20.3945C25.0646 18.9211 26.0007 16.9573 26.0007 14.9194C26.0007 12.7536 24.9868 10.728 23.1457 9.2156C21.3538 7.7441 18.9821 6.93359 16.467 6.93359C13.9519 6.93359 11.5802 7.7441 9.78858 9.21571C7.94749 10.728 6.93359 12.7536 6.93359 14.9194C6.93359 17.0852 7.94749 19.1107 9.78858 20.6232C11.5802 22.0948 13.9519 22.9052 16.467 22.9052C16.8021 22.9052 17.1393 22.8904 17.4737 22.861L18.0449 23.3562C20.0129 25.0615 22.5297 26.0003 25.1337 26.0004H26.0004V24.1556L25.7466 23.9019C24.7452 22.8976 23.9517 21.7057 23.4115 20.3945ZM19.1802 22.0462L18.0339 21.0527L17.6517 21.0996C17.2587 21.1476 16.863 21.1718 16.467 21.1718C12.1661 21.1718 8.66694 18.367 8.66694 14.9194C8.66694 11.4718 12.1661 8.66694 16.467 8.66694C20.7679 8.66694 24.267 11.4718 24.267 14.9194C24.267 16.637 23.4101 18.2406 21.8541 19.4346L21.355 19.8177L21.5853 20.4696C22.0573 21.801 22.7511 23.043 23.6372 24.143C21.9869 23.8675 20.4446 23.142 19.1802 22.0462Z" fill="white"/>
<path d="M2.39337 16.3301C3.20464 15.3031 3.84162 14.1498 4.27882 12.9163L4.5074 12.2676L4.00869 11.8849C2.54141 10.759 1.73335 9.24783 1.73335 7.62981C1.73335 4.37848 5.03802 1.73335 9.10006 1.73335C12.0884 1.73335 14.6666 3.16498 15.8209 5.21629C16.0353 5.20589 16.2505 5.20004 16.4668 5.20004C16.9011 5.20004 17.3314 5.22111 17.7578 5.26325C17.3117 4.1076 16.537 3.05264 15.4719 2.17784C13.7623 0.773451 11.4997 0 9.10006 0C6.70046 0 4.4378 0.773451 2.72807 2.17784C0.968832 3.62296 0 5.55916 0 7.62981C0 9.56899 0.885739 11.4375 2.45106 12.843C1.94023 14.0723 1.19382 15.1898 0.253881 16.1325L0 16.3863V18.2001H0.866673C2.46932 18.1999 4.04992 17.8267 5.48338 17.11C5.3262 16.5142 5.2341 15.9032 5.2087 15.2876C4.33866 15.7975 3.38569 16.1504 2.39337 16.3301Z" fill="white"/>
</svg>
