<svg width="36" height="36" viewBox="0 0 36 36" fill="none" xmlns="http://www.w3.org/2000/svg">
<mask id="mask0_1_3440" style="mask-type:alpha" maskUnits="userSpaceOnUse" x="0" y="0" width="36" height="36">
<rect width="35.3801" height="35.3801" fill="#D9D9D9"/>
</mask>
<g mask="url(#mask0_1_3440)">
<path d="M20.8651 18.3692H26.8753V16.895H20.8651V18.3692ZM20.8651 14.2868H26.8753V12.8126H20.8651V14.2868ZM8.50496 22.565H18.257V22.321C18.257 21.4611 17.8252 20.7954 16.9615 20.3239C16.0979 19.8524 14.9045 19.6167 13.3811 19.6167C11.8578 19.6167 10.6642 19.8524 9.80038 20.3239C8.93676 20.7954 8.50496 21.4611 8.50496 22.321V22.565ZM13.3811 17.2351C14.0028 17.2351 14.5267 17.0221 14.953 16.5961C15.3793 16.1698 15.5924 15.6457 15.5924 15.0239C15.5924 14.402 15.3793 13.8781 14.953 13.4521C14.5267 13.0258 14.0028 12.8126 13.3811 12.8126C12.7593 12.8126 12.2352 13.0258 11.8089 13.4521C11.3829 13.8781 11.1699 14.402 11.1699 15.0239C11.1699 15.6457 11.3829 16.1698 11.8089 16.5961C12.2352 17.0221 12.7593 17.2351 13.3811 17.2351ZM6.80413 28.008C6.12552 28.008 5.55895 27.7808 5.10441 27.3262C4.64988 26.8717 4.42261 26.3051 4.42261 25.6265V9.75115C4.42261 9.07254 4.64988 8.50597 5.10441 8.05143C5.55895 7.5969 6.12552 7.36963 6.80413 7.36963H28.5762C29.2548 7.36963 29.8213 7.5969 30.2759 8.05143C30.7304 8.50597 30.9577 9.07254 30.9577 9.75115V25.6265C30.9577 26.3051 30.7304 26.8717 30.2759 27.3262C29.8213 27.7808 29.2548 28.008 28.5762 28.008H6.80413ZM6.80413 26.5338H28.5762C28.8032 26.5338 29.0112 26.4394 29.2001 26.2504C29.389 26.0615 29.4835 25.8535 29.4835 25.6265V9.75115C29.4835 9.52413 29.389 9.31615 29.2001 9.12721C29.0112 8.93827 28.8032 8.8438 28.5762 8.8438H6.80413C6.57711 8.8438 6.36913 8.93827 6.18019 9.12721C5.99125 9.31615 5.89678 9.52413 5.89678 9.75115V25.6265C5.89678 25.8535 5.99125 26.0615 6.18019 26.2504C6.36913 26.4394 6.57711 26.5338 6.80413 26.5338Z" fill="#07A7C9"/>
</g>
</svg>
