<svg width="20" height="24" viewBox="0 0 20 24" fill="none" xmlns="http://www.w3.org/2000/svg">
<path d="M7.74078 21.576C7.74078 22.7925 8.70372 23.7767 9.89387 23.7767C11.084 23.7767 12.047 22.7925 12.047 21.576H7.74078ZM9.89387 4.97652C12.8801 4.97652 15.3037 7.45373 15.3037 10.506V18.2473H4.48408V10.506C4.48408 7.45373 6.90767 4.97652 9.89387 4.97652ZM9.89387 0C8.99585 0 8.27094 0.740949 8.27094 1.65884V2.95274C4.87359 3.70475 2.32017 6.80125 2.32017 10.506V17.1414L0.15625 19.3531V20.459H19.6315V19.3531L17.4676 17.1414V10.506C17.4676 6.80125 14.9142 3.70475 11.5168 2.95274V1.65884C11.5168 0.740949 10.7919 0 9.89387 0ZM8.81192 7.18831H10.9758V11.6119H8.81192V7.18831ZM8.81192 13.8237H10.9758V16.0355H8.81192V13.8237Z" fill="#F7585B"/>
</svg>
