<svg width="24" height="24" viewBox="0 0 24 24" fill="none" xmlns="http://www.w3.org/2000/svg">
<mask id="mask0_2049_15808" style="mask-type:alpha" maskUnits="userSpaceOnUse" x="0" y="0" width="24" height="24">
<rect width="24" height="24" fill="#D9D9D9"/>
</mask>
<g mask="url(#mask0_2049_15808)">
<path d="M3.5 18.5L7.673 12L3.5 5.5H14.8077C15.1539 5.5 15.4792 5.57825 15.7837 5.73475C16.0881 5.89108 16.3383 6.109 16.5345 6.3885L20.5 12L16.4962 17.6307C16.3064 17.9037 16.0625 18.1169 15.7645 18.2703C15.4663 18.4234 15.1474 18.5 14.8077 18.5H3.5ZM6.227 17H14.8077C14.9039 17 14.9937 16.9776 15.077 16.9327C15.1603 16.8877 15.2308 16.8268 15.2885 16.75L18.6655 12L15.2885 7.25C15.2308 7.17317 15.1635 7.11225 15.0865 7.06725C15.0097 7.02242 14.9167 7 14.8077 7H6.227L9.477 12L6.227 17Z" fill="#1C1B1F"/>
</g>
</svg>
