<svg width="33" height="18" viewBox="0 0 33 18" fill="none" xmlns="http://www.w3.org/2000/svg">
<path d="M25.5902 14.833C26.346 14.833 27.0816 14.6592 27.7969 14.3118C28.5123 13.9644 29.1669 13.4699 29.7607 12.8285V8.57906C29.1399 8.65924 28.5663 8.75278 28.0399 8.85969C27.5135 8.96659 27.0209 9.08686 26.562 9.22049C25.3472 9.59465 24.4362 10.0624 23.8288 10.6236C23.2215 11.1849 22.9178 11.8396 22.9178 12.588C22.9178 13.2828 23.1607 13.8307 23.6466 14.2316C24.1325 14.6325 24.7804 14.833 25.5902 14.833ZM24.6589 17.559C23.1202 17.559 21.9055 17.1247 21.0147 16.2561C20.1239 15.3875 19.6785 14.2049 19.6785 12.7082C19.6785 11.3185 20.1239 10.1826 21.0147 9.30067C21.9055 8.41871 23.3362 7.71047 25.3067 7.17595C25.9276 7.01559 26.6092 6.8686 27.3515 6.73497C28.0939 6.60134 28.8969 6.48107 29.7607 6.37416C29.7067 5.11804 29.4098 4.20267 28.8699 3.62806C28.3301 3.05345 27.4932 2.76615 26.3595 2.76615C25.6577 2.76615 24.9626 2.8931 24.2742 3.14699C23.5859 3.40089 22.7018 3.84855 21.6221 4.48998L20.3264 2.24499C21.2172 1.57684 22.2632 1.03563 23.4644 0.621381C24.6656 0.207127 25.8871 0 27.1288 0C29.0454 0 30.5031 0.587973 31.5018 1.76392C32.5006 2.93987 33 4.65033 33 6.89532V17.1982H30.2871L30.0442 15.3942C29.2883 16.0624 28.4583 16.5902 27.554 16.9777C26.6497 17.3653 25.6847 17.559 24.6589 17.559ZM1.41718 18C1.12025 17.6258 0.863804 17.3185 0.647853 17.078C0.431902 16.8374 0.215951 16.6503 0 16.5167C2.05153 15.6347 3.69816 14.4989 4.93988 13.1091C6.18159 11.7194 7.07239 9.82183 7.61227 7.41648H0.566871V5.53229H7.9362C8.04417 4.73051 8.12515 3.87528 8.17914 2.96659C8.23313 2.05791 8.26012 1.09577 8.26012 0.0801782H10.2847C10.2847 1.09577 10.2644 2.05122 10.2239 2.94655C10.1834 3.84187 10.0957 4.70379 9.96074 5.53229H17.9374V7.41648H10.6896C11.3914 9.58129 12.4037 11.4321 13.7264 12.9688C15.0491 14.5056 16.5877 15.6214 18.3423 16.3163C18.1264 16.5301 17.9172 16.7572 17.7147 16.9978C17.5123 17.2383 17.2626 17.5724 16.9656 18C15.265 17.2517 13.7534 16.1091 12.4307 14.5724C11.108 13.0356 10.0417 11.1715 9.2319 8.97995C8.58405 11.1982 7.61902 13.029 6.33681 14.4722C5.0546 15.9154 3.41472 17.0913 1.41718 18Z" fill="black"/>
</svg>
