<svg width="62" height="62" viewBox="0 0 62 62" fill="none" xmlns="http://www.w3.org/2000/svg">
<mask id="mask0_1_3277" style="mask-type:alpha" maskUnits="userSpaceOnUse" x="0" y="0" width="62" height="62">
<rect width="62" height="62" fill="#D9D9D9"/>
</mask>
<g mask="url(#mask0_1_3277)">
<path d="M41.6788 25.3167L44.563 22.6578L39.4534 17.9473H52.036V14.1279H39.4534L44.563 9.41737L41.6788 6.75845L31.6137 16.0376L41.6788 25.3167ZM41.6837 40.2269C38.0545 40.2269 34.6433 39.592 31.4501 38.3223C28.2569 37.0526 25.4793 35.3294 23.1174 33.1528C20.7555 30.9762 18.8855 28.4166 17.5073 25.474C16.1295 22.5314 15.4407 19.3874 15.4407 16.042C15.4407 12.6963 16.1293 9.55147 17.5066 6.60759C18.8839 3.66371 20.753 1.10304 23.114 -1.07442C25.4749 -3.25189 28.2513 -4.9759 31.4432 -6.24648C34.635 -7.51663 38.0453 -8.1517 41.674 -8.1517C45.3032 -8.1517 48.7143 -7.51684 51.9076 -6.24712C55.1008 -4.97739 57.8784 -3.25422 60.2403 -1.07761C62.6022 1.09901 64.4722 3.65862 65.8504 6.60122C67.2281 9.54383 67.917 12.6878 67.917 16.0331C67.917 19.3789 67.2284 22.5237 65.8511 25.4676C64.4738 28.4115 62.6047 30.9722 60.2437 33.1496C57.8827 35.3271 55.1063 37.0511 51.9145 38.3217C48.7226 39.5918 45.3124 40.2269 41.6837 40.2269ZM41.6788 36.4075C47.8471 36.4075 53.0717 34.4342 57.3527 30.4875C61.6337 26.5408 63.7741 21.7242 63.7741 16.0376C63.7741 10.351 61.6337 5.53435 57.3527 1.58767C53.0717 -2.359 47.8471 -4.33234 41.6788 -4.33234C35.5106 -4.33234 30.286 -2.359 26.005 1.58767C21.724 5.53435 19.5835 10.351 19.5835 16.0376C19.5835 21.7242 21.724 26.5408 26.005 30.4875C30.286 34.4342 35.5106 36.4075 41.6788 36.4075Z" fill="#43D7F7"/>
</g>
</svg>
