<svg width="144" height="57" viewBox="0 0 144 57" fill="none" xmlns="http://www.w3.org/2000/svg">
<g filter="url(#filter0_dii_1_1814)">
<g clip-path="url(#clip0_1_1814)">
<rect x="2.28003" y="0.5" width="138.72" height="51" rx="25.5" fill="#07A7C9"/>
<circle cx="31.0944" cy="26.2526" r="84.405" fill="#FFFCFC" fill-opacity="0.1"/>
<circle cx="31.0941" cy="26.2527" r="58.905" fill="white" fill-opacity="0.1"/>
<circle cx="31.3492" cy="25.9957" r="35.19" fill="white" fill-opacity="0.1"/>
<path fill-rule="evenodd" clip-rule="evenodd" d="M168.029 26.5082C168.029 37.4929 159.124 46.3978 148.14 46.3982C148.139 55.1293 141.061 62.2071 132.33 62.2071C127.586 62.2071 123.33 60.1177 120.432 56.8089C118.017 58.9018 114.866 60.1682 111.419 60.1682C109.393 60.1682 107.469 59.7306 105.737 58.9448C104.221 63.5082 99.917 66.7995 94.8445 66.7995C90.1213 66.7995 86.0646 63.9459 84.3045 59.8687C81.8643 63.7257 77.5608 66.2868 72.6592 66.2868C69.2506 66.2868 66.1313 65.0483 63.7266 62.9968C61.957 64.1127 59.8611 64.7584 57.6143 64.7584C53.6186 64.7584 50.0999 62.7162 48.0451 59.6185C46.0672 61.2365 43.5392 62.2071 40.7846 62.2071C37.6063 62.2071 34.7298 60.915 32.6518 58.8274C31.2177 60.2858 29.2219 61.1903 27.0149 61.1903C24.6271 61.1903 22.4866 60.1316 21.0371 58.458C18.8842 62.2214 14.8302 64.7574 10.1839 64.7574C5.59385 64.7574 1.58184 62.2823 -0.590324 58.594C-2.07114 59.8924 -4.01149 60.6795 -6.13567 60.6795C-9.6058 60.6795 -12.5853 58.579 -13.8723 55.5802C-15.9718 57.1791 -18.5929 58.1284 -21.4356 58.1284C-28.3364 58.1284 -33.9306 52.5342 -33.9306 45.6334C-33.9306 38.7326 -28.3364 33.1384 -21.4356 33.1384C-14.9676 33.1384 -9.64742 38.053 -9.00556 44.3516C-8.10994 44.0267 -7.1435 43.8495 -6.13567 43.8495C-4.01228 43.8495 -2.07259 44.636 -0.59198 45.9335C1.57981 42.2436 5.59269 39.7674 10.1839 39.7674C15.37 39.7674 19.8181 42.9268 21.7085 47.426C23.1113 46.1547 24.9727 45.3803 27.0149 45.3803C28.1825 45.3803 29.2909 45.6334 30.2883 46.0878C32.0713 42.0641 36.1002 39.2571 40.7846 39.2571C44.7803 39.2571 48.299 41.2994 50.3538 44.397C52.3317 42.7791 54.8597 41.8084 57.6143 41.8084C59.4441 41.8084 61.1738 42.2367 62.7087 42.9984C65.2155 40.3785 68.7468 38.7468 72.6592 38.7468C78.7928 38.7468 83.9898 42.7571 85.7711 48.2987C87.8702 45.5918 91.1539 43.8495 94.8445 43.8495C95.8727 43.8495 96.8693 43.9847 97.8175 44.2383C98.8539 37.6594 104.549 32.6282 111.419 32.6282C114.865 32.6282 118.016 33.8942 120.431 35.9865C122.578 33.5342 125.472 31.7515 128.757 30.9925C128.425 29.5513 128.249 28.0502 128.249 26.5082C128.249 15.5232 137.154 6.61816 148.139 6.61816C159.124 6.61816 168.029 15.5232 168.029 26.5082Z" fill="#E8FCFE"/>
<path fill-rule="evenodd" clip-rule="evenodd" d="M165.989 21.9173C165.989 32.9021 157.084 41.807 146.1 41.8073C146.099 50.5385 139.021 57.6163 130.29 57.6163C125.546 57.6163 121.29 55.5269 118.392 52.2181C115.976 54.311 112.825 55.5773 109.379 55.5773C107.353 55.5773 105.429 55.1398 103.696 54.3539C102.18 58.9174 97.8766 62.2087 92.8042 62.2087C88.081 62.2087 84.0243 59.3551 82.2641 55.2779C79.824 59.1349 75.5205 61.696 70.6189 61.696C67.2103 61.696 64.0909 60.4575 61.6863 58.406C59.9166 59.5219 57.8207 60.1676 55.574 60.1676C51.5783 60.1676 48.0596 58.1254 46.0047 55.0277C44.0268 56.6456 41.4989 57.6163 38.7442 57.6163C35.566 57.6163 32.6895 56.3242 30.6115 54.2365C29.1774 55.695 27.1816 56.5995 24.9746 56.5995C22.5868 56.5995 20.4463 55.5408 18.9968 53.8672C16.8438 57.6305 12.7899 60.1665 8.14359 60.1665C3.5535 60.1665 -0.458504 57.6915 -2.63067 54.0032C-4.11149 55.3016 -6.05184 56.0887 -8.17602 56.0887C-11.6461 56.0887 -14.6257 53.9882 -15.9126 50.9893C-18.0122 52.5883 -20.6332 53.5376 -23.4759 53.5376C-30.3767 53.5376 -35.9709 47.9434 -35.9709 41.0426C-35.9709 34.1418 -30.3767 28.5476 -23.4759 28.5476C-17.0079 28.5476 -11.6878 33.4621 -11.0459 39.7607C-10.1503 39.4358 -9.18384 39.2587 -8.17602 39.2587C-6.05263 39.2587 -4.11293 40.0451 -2.63232 41.3427C-0.460533 37.6528 3.55234 35.1765 8.14359 35.1765C13.3296 35.1765 17.7778 38.336 19.6681 42.8351C21.071 41.5639 22.9323 40.7895 24.9746 40.7895C26.1421 40.7895 27.2505 41.0426 28.248 41.4969C30.031 37.4732 34.0598 34.6663 38.7442 34.6663C42.74 34.6663 46.2587 36.7085 48.3135 39.8062C50.2914 38.1882 52.8193 37.2176 55.574 37.2176C57.4037 37.2176 59.1334 37.6459 60.6683 38.4076C63.1752 35.7877 66.7065 34.156 70.6189 34.156C76.7525 34.156 81.9494 38.1663 83.7308 43.7079C85.8299 41.001 89.1136 39.2587 92.8042 39.2587C93.8324 39.2587 94.8289 39.3939 95.7771 39.6475C96.8135 33.0686 102.509 28.0373 109.379 28.0373C112.825 28.0373 115.976 29.3033 118.391 31.3957C120.538 28.9433 123.431 27.1606 126.716 26.4017C126.384 24.9605 126.209 23.4594 126.209 21.9173C126.209 10.9324 135.114 2.02734 146.099 2.02734C157.084 2.02734 165.989 10.9324 165.989 21.9173Z" fill="#E8FCFE" fill-opacity="0.6"/>
<g clip-path="url(#clip1_1_1814)">
<g filter="url(#filter1_dii_1_1814)">
<circle cx="31.0946" cy="26.2556" r="18.615" fill="#FCDA65"/>
</g>
</g>
</g>
</g>
<defs>
<filter id="filter0_dii_1_1814" x="0.24003" y="-1.54" width="142.8" height="57.63" filterUnits="userSpaceOnUse" color-interpolation-filters="sRGB">
<feFlood flood-opacity="0" result="BackgroundImageFix"/>
<feColorMatrix in="SourceAlpha" type="matrix" values="0 0 0 0 0 0 0 0 0 0 0 0 0 0 0 0 0 0 127 0" result="hardAlpha"/>
<feOffset dy="2.55"/>
<feGaussianBlur stdDeviation="1.02"/>
<feComposite in2="hardAlpha" operator="out"/>
<feColorMatrix type="matrix" values="0 0 0 0 1 0 0 0 0 1 0 0 0 0 1 0 0 0 0.25 0"/>
<feBlend mode="normal" in2="BackgroundImageFix" result="effect1_dropShadow_1_1814"/>
<feBlend mode="normal" in="SourceGraphic" in2="effect1_dropShadow_1_1814" result="shape"/>
<feColorMatrix in="SourceAlpha" type="matrix" values="0 0 0 0 0 0 0 0 0 0 0 0 0 0 0 0 0 0 127 0" result="hardAlpha"/>
<feOffset dy="2.04"/>
<feGaussianBlur stdDeviation="0.765"/>
<feComposite in2="hardAlpha" operator="arithmetic" k2="-1" k3="1"/>
<feColorMatrix type="matrix" values="0 0 0 0 0 0 0 0 0 0 0 0 0 0 0 0 0 0 0.3 0"/>
<feBlend mode="normal" in2="shape" result="effect2_innerShadow_1_1814"/>
<feColorMatrix in="SourceAlpha" type="matrix" values="0 0 0 0 0 0 0 0 0 0 0 0 0 0 0 0 0 0 127 0" result="hardAlpha"/>
<feOffset dy="-2.04"/>
<feGaussianBlur stdDeviation="1.02"/>
<feComposite in2="hardAlpha" operator="arithmetic" k2="-1" k3="1"/>
<feColorMatrix type="matrix" values="0 0 0 0 0 0 0 0 0 0 0 0 0 0 0 0 0 0 0.25 0"/>
<feBlend mode="normal" in2="effect2_innerShadow_1_1814" result="effect3_innerShadow_1_1814"/>
</filter>
<filter id="filter1_dii_1_1814" x="10.4396" y="5.09063" width="41.31" height="43.8605" filterUnits="userSpaceOnUse" color-interpolation-filters="sRGB">
<feFlood flood-opacity="0" result="BackgroundImageFix"/>
<feColorMatrix in="SourceAlpha" type="matrix" values="0 0 0 0 0 0 0 0 0 0 0 0 0 0 0 0 0 0 127 0" result="hardAlpha"/>
<feOffset dy="2.04"/>
<feGaussianBlur stdDeviation="1.02"/>
<feComposite in2="hardAlpha" operator="out"/>
<feColorMatrix type="matrix" values="0 0 0 0 0 0 0 0 0 0 0 0 0 0 0 0 0 0 0.25 0"/>
<feBlend mode="normal" in2="BackgroundImageFix" result="effect1_dropShadow_1_1814"/>
<feBlend mode="normal" in="SourceGraphic" in2="effect1_dropShadow_1_1814" result="shape"/>
<feColorMatrix in="SourceAlpha" type="matrix" values="0 0 0 0 0 0 0 0 0 0 0 0 0 0 0 0 0 0 127 0" result="hardAlpha"/>
<feOffset dx="1.53" dy="2.04"/>
<feGaussianBlur stdDeviation="1.4535"/>
<feComposite in2="hardAlpha" operator="arithmetic" k2="-1" k3="1"/>
<feColorMatrix type="matrix" values="0 0 0 0 0.97 0 0 0 0 0.948398 0 0 0 0 0.753973 0 0 0 1 0"/>
<feBlend mode="normal" in2="shape" result="effect2_innerShadow_1_1814"/>
<feColorMatrix in="SourceAlpha" type="matrix" values="0 0 0 0 0 0 0 0 0 0 0 0 0 0 0 0 0 0 127 0" result="hardAlpha"/>
<feOffset dy="-2.55"/>
<feGaussianBlur stdDeviation="1.479"/>
<feComposite in2="hardAlpha" operator="arithmetic" k2="-1" k3="1"/>
<feColorMatrix type="matrix" values="0 0 0 0 0 0 0 0 0 0 0 0 0 0 0 0 0 0 0.25 0"/>
<feBlend mode="normal" in2="effect2_innerShadow_1_1814" result="effect3_innerShadow_1_1814"/>
</filter>
<clipPath id="clip0_1_1814">
<rect x="2.28003" y="0.5" width="138.72" height="51" rx="25.5" fill="white"/>
</clipPath>
<clipPath id="clip1_1_1814">
<rect x="12.4797" y="7.63965" width="37.23" height="37.23" rx="18.615" fill="white"/>
</clipPath>
</defs>
</svg>
