<svg width="29" height="29" viewBox="0 0 29 29" fill="none" xmlns="http://www.w3.org/2000/svg">
<path d="M26.8358 0H2.13962C0.956604 0 0 0.933962 0 2.08868V26.8868C0 28.0415 0.956604 28.9811 2.13962 28.9811H26.8358C28.0189 28.9811 28.9811 28.0415 28.9811 26.8925V2.08868C28.9811 0.933962 28.0189 0 26.8358 0ZM8.59811 24.6962H4.29623V10.8623H8.59811V24.6962ZM6.44717 8.97736C5.06604 8.97736 3.95094 7.86226 3.95094 6.48679C3.95094 5.11132 5.06604 3.99623 6.44717 3.99623C7.82264 3.99623 8.93774 5.11132 8.93774 6.48679C8.93774 7.8566 7.82264 8.97736 6.44717 8.97736ZM24.6962 24.6962H20.4V17.9717C20.4 16.3698 20.3717 14.3038 18.1642 14.3038C15.9283 14.3038 15.5887 16.0528 15.5887 17.8585V24.6962H11.2981V10.8623H15.4189V12.7528H15.4755C16.0472 11.666 17.4509 10.517 19.5396 10.517C23.8925 10.517 24.6962 13.3811 24.6962 17.1057V24.6962Z" fill="#0DA6C5"/>
</svg>
