<svg width="22" height="27" viewBox="0 0 22 27" fill="none" xmlns="http://www.w3.org/2000/svg">
<path d="M9.69619 25.9893C6.94945 22.6469 0.840332 14.5461 0.840332 9.99588C0.840332 4.47524 5.3635 0 10.9433 0C16.5209 0 21.0462 4.47524 21.0462 9.99588C21.0462 14.5461 14.8897 22.6469 12.1904 25.9893C11.5431 26.7858 10.3434 26.7858 9.69619 25.9893ZM10.9433 13.3278C12.8007 13.3278 14.3109 11.8337 14.3109 9.99588C14.3109 8.15809 12.8007 6.66392 10.9433 6.66392C9.08581 6.66392 7.57563 8.15809 7.57563 9.99588C7.57563 11.8337 9.08581 13.3278 10.9433 13.3278Z" fill="#07A7C9"/>
</svg>
