<svg width="20" height="23" viewBox="0 0 20 23" fill="none" xmlns="http://www.w3.org/2000/svg">
<path d="M18.9619 9.29878H17.2742V5.9906C17.2742 2.68739 14.0126 0 9.99998 0C5.98731 0 2.72583 2.68915 2.72583 5.99451V9.29878H1.05683C0.478526 9.29878 0 9.67676 0 10.1526V20.1479C0 21.3357 1.18403 22.3011 2.62745 22.3011H17.3913C18.8347 22.3011 20 21.3357 20 20.1479V10.1526C20 9.67676 19.5402 9.29878 18.9619 9.29878ZM4.81775 5.99451C4.81775 3.63938 7.14206 1.72333 9.99998 1.72333C12.8579 1.72333 15.1823 3.63761 15.1823 5.9906V9.29878H4.81775V5.99451ZM17.9081 20.1479C17.9081 20.3855 17.68 20.5796 17.3913 20.5796H2.62745C2.33876 20.5796 2.09192 20.3855 2.09192 20.1479V11.0203H17.9081V20.1479Z" fill="#202020"/>
<path d="M10.0001 18.3816C10.5784 18.3816 11.046 17.9958 11.046 17.5199V14.4179C11.046 13.942 10.5783 13.5563 10.0001 13.5563C9.42177 13.5563 8.9541 13.942 8.9541 14.4179V17.5199C8.9541 17.9958 9.42176 18.3816 10.0001 18.3816Z" fill="#202020"/>
</svg>
