<svg width="73" height="70" viewBox="0 0 73 70" fill="none" xmlns="http://www.w3.org/2000/svg">
<mask id="mask0_2269_5397" style="mask-type:alpha" maskUnits="userSpaceOnUse" x="0" y="0" width="73" height="70">
<rect width="73" height="69.4098" fill="#D9D9D9"/>
</mask>
<g mask="url(#mask0_2269_5397)">
<path d="M34.2197 43.8297C36.1461 43.8297 37.7683 43.2031 39.0864 41.9498C40.4045 40.6966 41.0635 39.1542 41.0635 37.3225C41.0635 35.4909 40.4045 33.9484 39.0864 32.6952C37.7683 31.442 36.1461 30.8153 34.2197 30.8153C32.2933 30.8153 30.6711 31.442 29.3531 32.6952C28.035 33.9484 27.376 35.4909 27.376 37.3225C27.376 39.1542 28.035 40.6966 29.3531 41.9498C30.6711 43.2031 32.2933 43.8297 34.2197 43.8297ZM48.8958 55.398L40.9114 47.8063C39.8975 48.4329 38.8202 48.8908 37.6796 49.18C36.539 49.4692 35.3857 49.6138 34.2197 49.6138C30.6204 49.6138 27.5661 48.4209 25.0567 46.0349C22.5473 43.6489 21.2926 40.7448 21.2926 37.3225C21.2926 33.9002 22.5473 30.9961 25.0567 28.6101C27.5661 26.2242 30.6204 25.0312 34.2197 25.0312C37.819 25.0312 40.8734 26.2242 43.3827 28.6101C45.8921 30.9961 47.1468 33.9002 47.1468 37.3225C47.1468 38.4312 46.9821 39.5277 46.6525 40.6123C46.323 41.6968 45.8288 42.7211 45.1697 43.6851L53.2301 51.3491L48.8958 55.398ZM15.2093 65.5203C13.5364 65.5203 12.1043 64.9539 10.913 63.8212C9.72164 62.6884 9.12598 61.3268 9.12598 59.7361V48.1678H15.2093V59.7361H27.376V65.5203H15.2093ZM45.626 65.5203V59.7361H57.7926V48.1678H63.876V59.7361C63.876 61.3268 63.2803 62.6884 62.089 63.8212C60.8977 64.9539 59.4656 65.5203 57.7926 65.5203H45.626ZM9.12598 30.8153V19.247C9.12598 17.6564 9.72164 16.2947 10.913 15.162C12.1043 14.0293 13.5364 13.4629 15.2093 13.4629H27.376V19.247H15.2093V30.8153H9.12598ZM57.7926 30.8153V19.247H45.626V13.4629H57.7926C59.4656 13.4629 60.8977 14.0293 62.089 15.162C63.2803 16.2947 63.876 17.6564 63.876 19.247V30.8153H57.7926Z" fill="white"/>
</g>
</svg>
