<svg width="50" height="50" viewBox="0 0 50 50" fill="none" xmlns="http://www.w3.org/2000/svg">
<mask id="mask0_2135_5324" style="mask-type:alpha" maskUnits="userSpaceOnUse" x="0" y="0" width="50" height="50">
<rect width="50" height="50" fill="#D9D9D9"/>
</mask>
<g mask="url(#mask0_2135_5324)">
<path d="M23.4375 28.125C24.7569 28.125 25.8681 27.6736 26.7708 26.7708C27.6736 25.8681 28.125 24.7569 28.125 23.4375C28.125 22.1181 27.6736 21.0069 26.7708 20.1042C25.8681 19.2014 24.7569 18.75 23.4375 18.75C22.1181 18.75 21.0069 19.2014 20.1042 20.1042C19.2014 21.0069 18.75 22.1181 18.75 23.4375C18.75 24.7569 19.2014 25.8681 20.1042 26.7708C21.0069 27.6736 22.1181 28.125 23.4375 28.125ZM33.4896 36.4583L28.0208 30.9896C27.3264 31.441 26.5885 31.7708 25.8073 31.9792C25.026 32.1875 24.2361 32.2917 23.4375 32.2917C20.9722 32.2917 18.8802 31.4323 17.1615 29.7135C15.4427 27.9948 14.5833 25.9028 14.5833 23.4375C14.5833 20.9722 15.4427 18.8802 17.1615 17.1615C18.8802 15.4427 20.9722 14.5833 23.4375 14.5833C25.9028 14.5833 27.9948 15.4427 29.7135 17.1615C31.4323 18.8802 32.2917 20.9722 32.2917 23.4375C32.2917 24.2361 32.1788 25.026 31.9531 25.8073C31.7274 26.5885 31.3889 27.3264 30.9375 28.0208L36.4583 33.5417L33.4896 36.4583ZM10.4167 43.75C9.27083 43.75 8.28993 43.342 7.47396 42.526C6.65799 41.7101 6.25 40.7292 6.25 39.5833V31.25H10.4167V39.5833H18.75V43.75H10.4167ZM31.25 43.75V39.5833H39.5833V31.25H43.75V39.5833C43.75 40.7292 43.342 41.7101 42.526 42.526C41.7101 43.342 40.7292 43.75 39.5833 43.75H31.25ZM6.25 18.75V10.4167C6.25 9.27083 6.65799 8.28993 7.47396 7.47396C8.28993 6.65799 9.27083 6.25 10.4167 6.25H18.75V10.4167H10.4167V18.75H6.25ZM39.5833 18.75V10.4167H31.25V6.25H39.5833C40.7292 6.25 41.7101 6.65799 42.526 7.47396C43.342 8.28993 43.75 9.27083 43.75 10.4167V18.75H39.5833Z" fill="#0A4F99"/>
</g>
</svg>
