<svg width="16" height="15" viewBox="0 0 16 15" fill="none" xmlns="http://www.w3.org/2000/svg">
<path d="M7.99996 14.7246C8.82496 14.7246 9.49996 14.0496 9.49996 13.2246H6.49996C6.49996 14.0496 7.17496 14.7246 7.99996 14.7246ZM12.5 10.2246V6.47461C12.5 4.17211 11.2775 2.24461 9.12496 1.73461V1.22461C9.12496 0.602109 8.62246 0.0996094 7.99996 0.0996094C7.37746 0.0996094 6.87496 0.602109 6.87496 1.22461V1.73461C4.72996 2.24461 3.49996 4.16461 3.49996 6.47461V10.2246L1.99996 11.7246V12.4746H14V11.7246L12.5 10.2246ZM11 10.9746H4.99996V6.47461C4.99996 4.61461 6.13246 3.09961 7.99996 3.09961C9.86746 3.09961 11 4.61461 11 6.47461V10.9746ZM4.68496 1.28461L3.61246 0.212109C1.81246 1.58461 0.627461 3.69961 0.522461 6.09961H2.02246C2.13496 4.11211 3.15496 2.37211 4.68496 1.28461ZM13.9775 6.09961H15.4775C15.365 3.69961 14.18 1.58461 12.3875 0.212109L11.3225 1.28461C12.8375 2.37211 13.865 4.11211 13.9775 6.09961Z" fill="#3D5F57"/>
</svg>
