<svg width="21" height="20" viewBox="0 0 21 20" fill="none" xmlns="http://www.w3.org/2000/svg">
<path d="M18.0326 9.2081L10.3743 16.8664C9.43606 17.8046 8.16358 18.3317 6.83677 18.3317C5.50995 18.3317 4.23747 17.8046 3.29926 16.8664C2.36106 15.9282 1.83398 14.6558 1.83398 13.3289C1.83398 12.0021 2.36106 10.7296 3.29926 9.79144L10.9576 2.1331C11.5831 1.50763 12.4314 1.15625 13.3159 1.15625C14.2005 1.15625 15.0488 1.50763 15.6743 2.1331C16.2997 2.75857 16.6511 3.60689 16.6511 4.49144C16.6511 5.37598 16.2997 6.2243 15.6743 6.84977L8.0076 14.5081C7.69486 14.8208 7.2707 14.9965 6.82843 14.9965C6.38616 14.9965 5.962 14.8208 5.64926 14.5081C5.33653 14.1954 5.16084 13.7712 5.16084 13.3289C5.16084 12.8867 5.33653 12.4625 5.64926 12.1498L12.7243 5.0831" stroke="#303030" stroke-width="1.5" stroke-linecap="round" stroke-linejoin="round"/>
</svg>
