<svg width="46" height="46" viewBox="0 0 46 46" fill="none" xmlns="http://www.w3.org/2000/svg">
<path d="M19.509 3.30851C19.509 1.52527 20.4007 0.633641 22.1839 0.633641C23.9672 0.633641 24.8588 1.52527 24.8588 3.30851V43.1587C24.8588 44.9419 23.9672 45.8335 22.1839 45.8335C20.4007 45.8335 19.509 44.9419 19.509 43.1587V3.30851ZM3.40521 24.4891C1.62196 24.4891 0.730334 23.5975 0.730334 21.8143C0.730334 20.031 1.62196 19.1394 3.40521 19.1394H43.2554C45.0386 19.1394 45.9302 20.031 45.9302 21.8143C45.9302 23.5975 45.0386 24.4891 43.2554 24.4891H3.40521ZM3.40521 24.4891C1.62196 24.4891 0.730334 23.5975 0.730334 21.8143C0.730334 20.031 1.62196 19.1394 3.40521 19.1394H43.2554C45.0386 19.1394 45.9302 20.031 45.9302 21.8143C45.9302 23.5975 45.0386 24.4891 43.2554 24.4891H3.40521Z" fill="white"/>
</svg>
