<svg width="49" height="50" viewBox="0 0 49 50" fill="none" xmlns="http://www.w3.org/2000/svg">
<ellipse cx="24.3661" cy="25.0003" rx="24.3661" ry="24.4847" fill="white"/>
<path d="M24.4739 25.7646C28.6488 25.7646 32.0324 22.2206 32.0324 17.8491C32.0324 13.4776 28.6488 9.93359 24.4739 9.93359C20.299 9.93359 16.9154 13.4776 16.9154 17.8491C16.9154 22.2206 20.299 25.7646 24.4739 25.7646ZM27.4678 28.733H21.48C15.8295 28.733 11.2466 33.5317 11.2466 39.4498C11.2466 40.6334 12.163 41.5938 13.2933 41.5938H35.6557C36.786 41.5957 37.7012 40.6371 37.7012 39.4498C37.7012 33.5317 33.1189 28.733 27.4678 28.733Z" fill="black"/>
</svg>
