<svg width="80" height="80" viewBox="0 0 80 80" fill="none" xmlns="http://www.w3.org/2000/svg">
<path d="M40.0003 6.6665C21.6003 6.6665 6.66699 21.5998 6.66699 39.9998C6.66699 58.3998 21.6003 73.3332 40.0003 73.3332C58.4003 73.3332 73.3337 58.3998 73.3337 39.9998C73.3337 21.5998 58.4003 6.6665 40.0003 6.6665ZM13.3337 39.9998C13.3337 37.9665 13.6003 35.9665 14.0337 34.0665L29.967 49.9998V53.3332C29.967 56.9998 32.967 59.9998 36.6337 59.9998V66.4332C23.5337 64.7665 13.3337 53.5665 13.3337 39.9998ZM59.6337 57.9998C58.767 55.2998 56.3003 53.3332 53.3003 53.3332H49.967V43.3332C49.967 41.4998 48.467 39.9998 46.6337 39.9998H26.6337V33.3332H33.3003C35.1337 33.3332 36.6337 31.8332 36.6337 29.9998V23.3332H43.3003C46.967 23.3332 49.967 20.3332 49.967 16.6665V15.2998C59.7337 19.2332 66.667 28.8332 66.667 39.9998C66.667 46.9332 63.967 53.2665 59.6337 57.9998Z" fill="#D4D2E3"/>
</svg>
