<svg width="34" height="35" viewBox="0 0 34 35" fill="none" xmlns="http://www.w3.org/2000/svg">
<mask id="mask0_2283_8353" style="mask-type:alpha" maskUnits="userSpaceOnUse" x="0" y="0" width="34" height="35">
<rect x="0.480469" y="0.970703" width="33.1482" height="33.1482" fill="#D9D9D9"/>
</mask>
<g mask="url(#mask0_2283_8353)">
<path d="M9.87249 28.5939C9.18191 28.5939 8.59491 28.3522 8.11149 27.8688C7.62808 27.3854 7.38638 26.7984 7.38638 26.1078C7.38638 25.6244 7.52449 25.1698 7.80073 24.7439C8.07696 24.318 8.44528 24.013 8.90567 23.8289L14.2923 21.6881V18.5804C13.0492 20.0306 11.6047 21.1413 9.95882 21.9125C8.31292 22.6837 6.53465 23.0692 4.62402 23.0692V20.3069C6.18936 20.3069 7.61082 19.9846 8.88841 19.3401C10.166 18.6955 11.3227 17.7747 12.3586 16.5777L14.2232 14.3678C14.4994 14.0455 14.8217 13.8038 15.19 13.6427C15.5583 13.4816 15.9497 13.401 16.364 13.401H17.7452C18.1596 13.401 18.5509 13.4816 18.9192 13.6427C19.2875 13.8038 19.6098 14.0455 19.886 14.3678L21.7506 16.5777C22.7865 17.7747 23.9432 18.6955 25.2208 19.3401C26.4984 19.9846 27.9199 20.3069 29.4852 20.3069V23.0692C27.5746 23.0692 25.7963 22.6837 24.1504 21.9125C22.5045 21.1413 21.06 20.0306 19.817 18.5804V21.6881L25.2036 23.8289C25.6639 24.013 26.0323 24.318 26.3085 24.7439C26.5847 25.1698 26.7228 25.6244 26.7228 26.1078C26.7228 26.7984 26.4811 27.3854 25.9977 27.8688C25.5143 28.3522 24.9273 28.5939 24.2367 28.5939H14.2923V27.9034C14.2923 27.3048 14.4879 26.8099 14.8793 26.4186C15.2706 26.0273 15.7655 25.8316 16.364 25.8316H20.5076C20.7147 25.8316 20.8816 25.7683 21.0082 25.6417C21.1348 25.5151 21.1981 25.3482 21.1981 25.141C21.1981 24.9338 21.1348 24.7669 21.0082 24.6403C20.8816 24.5137 20.7147 24.4504 20.5076 24.4504H16.364C15.3972 24.4504 14.58 24.7842 13.9124 25.4518C13.2449 26.1193 12.9111 26.9365 12.9111 27.9034V28.5939H9.87249ZM17.0546 12.0198C16.295 12.0198 15.6447 11.7493 15.1037 11.2084C14.5627 10.6674 14.2923 10.0171 14.2923 9.25747C14.2923 8.49782 14.5627 7.84752 15.1037 7.30656C15.6447 6.7656 16.295 6.49512 17.0546 6.49512C17.8143 6.49512 18.4646 6.7656 19.0055 7.30656C19.5465 7.84752 19.817 8.49782 19.817 9.25747C19.817 10.0171 19.5465 10.6674 19.0055 11.2084C18.4646 11.7493 17.8143 12.0198 17.0546 12.0198Z" fill="white"/>
</g>
</svg>
