<svg width="25" height="32" viewBox="0 0 25 32" fill="none" xmlns="http://www.w3.org/2000/svg">
<path d="M12.3545 5.54248C11.6356 5.54248 11.0201 5.28649 10.5081 4.77451C9.99616 4.26252 9.74017 3.64705 9.74017 2.9281C9.74017 2.20915 9.99616 1.59368 10.5081 1.08169C11.0201 0.569712 11.6356 0.313721 12.3545 0.313721C13.0735 0.313721 13.689 0.569712 14.201 1.08169C14.7129 1.59368 14.9689 2.20915 14.9689 2.9281C14.9689 3.64705 14.7129 4.26252 14.201 4.77451C13.689 5.28649 13.0735 5.54248 12.3545 5.54248ZM8.43298 25.1503V9.46405C7.12579 9.35511 5.79681 9.19172 4.44605 8.97385C3.09529 8.75599 1.80989 8.48366 0.589844 8.15686L1.24344 5.54248C2.94278 6 4.75106 6.33224 6.66827 6.53921C8.58549 6.74618 10.4809 6.84967 12.3545 6.84967C14.2282 6.84967 16.1236 6.74618 18.0408 6.53921C19.958 6.33224 21.7663 6 23.4657 5.54248L24.1193 8.15686C22.8992 8.48366 21.6138 8.75599 20.263 8.97385C18.9123 9.19172 17.5833 9.35511 16.2761 9.46405V25.1503H13.6617V17.3072H11.0474V25.1503H8.43298ZM7.12579 31.6863C6.75542 31.6863 6.44496 31.561 6.19442 31.3105C5.94387 31.0599 5.8186 30.7495 5.8186 30.3791C5.8186 30.0087 5.94387 29.6983 6.19442 29.4477C6.44496 29.1972 6.75542 29.0719 7.12579 29.0719C7.49616 29.0719 7.80662 29.1972 8.05716 29.4477C8.30771 29.6983 8.43298 30.0087 8.43298 30.3791C8.43298 30.7495 8.30771 31.0599 8.05716 31.3105C7.80662 31.561 7.49616 31.6863 7.12579 31.6863ZM12.3545 31.6863C11.9842 31.6863 11.6737 31.561 11.4232 31.3105C11.1726 31.0599 11.0474 30.7495 11.0474 30.3791C11.0474 30.0087 11.1726 29.6983 11.4232 29.4477C11.6737 29.1972 11.9842 29.0719 12.3545 29.0719C12.7249 29.0719 13.0354 29.1972 13.2859 29.4477C13.5365 29.6983 13.6617 30.0087 13.6617 30.3791C13.6617 30.7495 13.5365 31.0599 13.2859 31.3105C13.0354 31.561 12.7249 31.6863 12.3545 31.6863ZM17.5833 31.6863C17.2129 31.6863 16.9025 31.561 16.6519 31.3105C16.4014 31.0599 16.2761 30.7495 16.2761 30.3791C16.2761 30.0087 16.4014 29.6983 16.6519 29.4477C16.9025 29.1972 17.2129 29.0719 17.5833 29.0719C17.9537 29.0719 18.2641 29.1972 18.5147 29.4477C18.7652 29.6983 18.8905 30.0087 18.8905 30.3791C18.8905 30.7495 18.7652 31.0599 18.5147 31.3105C18.2641 31.561 17.9537 31.6863 17.5833 31.6863Z" fill="#5D5A88"/>
</svg>
