<svg width="39" height="50" viewBox="0 0 39 50" fill="none" xmlns="http://www.w3.org/2000/svg">
<path d="M19.28 8.33333C18.1342 8.33333 17.1533 7.92535 16.3373 7.10938C15.5213 6.2934 15.1134 5.3125 15.1134 4.16667C15.1134 3.02083 15.5213 2.03993 16.3373 1.22396C17.1533 0.407986 18.1342 0 19.28 0C20.4259 0 21.4068 0.407986 22.2227 1.22396C23.0387 2.03993 23.4467 3.02083 23.4467 4.16667C23.4467 5.3125 23.0387 6.2934 22.2227 7.10938C21.4068 7.92535 20.4259 8.33333 19.28 8.33333ZM13.03 39.5833V14.5833C10.9467 14.4097 8.82864 14.1493 6.67586 13.8021C4.52308 13.4549 2.47447 13.0208 0.530029 12.5L1.5717 8.33333C4.28003 9.0625 7.16197 9.59201 10.2175 9.92188C13.2731 10.2517 16.2939 10.4167 19.28 10.4167C22.2661 10.4167 25.287 10.2517 28.3425 9.92188C31.3981 9.59201 34.28 9.0625 36.9884 8.33333L38.03 12.5C36.0856 13.0208 34.037 13.4549 31.8842 13.8021C29.7314 14.1493 27.6134 14.4097 25.53 14.5833V39.5833H21.3634V27.0833H17.1967V39.5833H13.03ZM10.9467 50C10.3564 50 9.86163 49.8003 9.46232 49.401C9.06301 49.0017 8.86336 48.5069 8.86336 47.9167C8.86336 47.3264 9.06301 46.8316 9.46232 46.4323C9.86163 46.033 10.3564 45.8333 10.9467 45.8333C11.537 45.8333 12.0318 46.033 12.4311 46.4323C12.8304 46.8316 13.03 47.3264 13.03 47.9167C13.03 48.5069 12.8304 49.0017 12.4311 49.401C12.0318 49.8003 11.537 50 10.9467 50ZM19.28 50C18.6898 50 18.195 49.8003 17.7957 49.401C17.3963 49.0017 17.1967 48.5069 17.1967 47.9167C17.1967 47.3264 17.3963 46.8316 17.7957 46.4323C18.195 46.033 18.6898 45.8333 19.28 45.8333C19.8703 45.8333 20.3651 46.033 20.7644 46.4323C21.1637 46.8316 21.3634 47.3264 21.3634 47.9167C21.3634 48.5069 21.1637 49.0017 20.7644 49.401C20.3651 49.8003 19.8703 50 19.28 50ZM27.6134 50C27.0231 50 26.5283 49.8003 26.129 49.401C25.7297 49.0017 25.53 48.5069 25.53 47.9167C25.53 47.3264 25.7297 46.8316 26.129 46.4323C26.5283 46.033 27.0231 45.8333 27.6134 45.8333C28.2036 45.8333 28.6984 46.033 29.0977 46.4323C29.497 46.8316 29.6967 47.3264 29.6967 47.9167C29.6967 48.5069 29.497 49.0017 29.0977 49.401C28.6984 49.8003 28.2036 50 27.6134 50Z" fill="white"/>
</svg>
