<svg width="77" height="20" viewBox="0 0 77 20" fill="none" xmlns="http://www.w3.org/2000/svg">
<path d="M15.6092 7.96965L14.2674 7.52237L14.8992 6.25862C14.9633 6.12635 14.9847 5.97745 14.9606 5.83248C14.9364 5.68751 14.8678 5.55361 14.7643 5.44926L13.2521 3.93702C13.1472 3.83201 13.012 3.76252 12.8656 3.73832C12.7191 3.71412 12.5688 3.73644 12.4356 3.80213L11.1719 4.434L10.7246 3.09216C10.6774 2.95229 10.5877 2.83062 10.4681 2.74409C10.3485 2.65756 10.2049 2.61047 10.0572 2.60938H7.92733C7.77849 2.60899 7.63329 2.6554 7.51226 2.74203C7.39123 2.82866 7.30049 2.95114 7.25286 3.09216L6.80557 4.434L5.54183 3.80213C5.40955 3.73807 5.26065 3.71665 5.11568 3.74081C4.97071 3.76497 4.83681 3.83353 4.73246 3.93702L3.22022 5.44926C3.11521 5.55417 3.04572 5.68935 3.02152 5.83581C2.99733 5.98226 3.01964 6.13261 3.08533 6.26572L3.7172 7.52947L2.37536 7.97675C2.23549 8.02399 2.11383 8.11366 2.0273 8.23327C1.94077 8.35288 1.89368 8.4965 1.89258 8.64412V10.774C1.8922 10.9229 1.9386 11.0681 2.02523 11.1891C2.11187 11.3101 2.23435 11.4009 2.37536 11.4485L3.7172 11.8958L3.08533 13.1595C3.02128 13.2918 2.99985 13.4407 3.02401 13.5857C3.04818 13.7306 3.11673 13.8645 3.22022 13.9689L4.73246 15.4811C4.83737 15.5862 4.97256 15.6556 5.11901 15.6798C5.26546 15.704 5.41582 15.6817 5.54893 15.616L6.81267 14.9842L7.25996 16.326C7.30758 16.467 7.39833 16.5895 7.51936 16.6761C7.64039 16.7628 7.78559 16.8092 7.93443 16.8088H10.0643C10.2132 16.8092 10.3584 16.7628 10.4794 16.6761C10.6004 16.5895 10.6912 16.467 10.7388 16.326L11.1861 14.9842L12.4498 15.616C12.5813 15.6785 12.7287 15.699 12.8722 15.6749C13.0157 15.6508 13.1483 15.5831 13.2521 15.4811L14.7643 13.9689C14.8694 13.864 14.9388 13.7288 14.963 13.5824C14.9872 13.4359 14.9649 13.2855 14.8992 13.1524L14.2674 11.8887L15.6092 11.4414C15.7491 11.3942 15.8707 11.3045 15.9573 11.1849C16.0438 11.0653 16.0909 10.9217 16.092 10.774V8.64412C16.0924 8.49528 16.046 8.35009 15.9593 8.22906C15.8727 8.10802 15.7502 8.01728 15.6092 7.96965ZM14.672 10.2629L13.8201 10.5468C13.6242 10.6104 13.4444 10.7158 13.2933 10.8558C13.1422 10.9957 13.0234 11.1669 12.945 11.3573C12.8667 11.5478 12.8307 11.753 12.8396 11.9588C12.8485 12.1646 12.902 12.366 12.9965 12.549L13.4012 13.3583L12.6202 14.1393L11.8322 13.7133C11.6501 13.6226 11.4507 13.5721 11.2474 13.5651C11.0441 13.5582 10.8417 13.595 10.6538 13.6731C10.466 13.7512 10.2972 13.8688 10.1587 14.0178C10.0203 14.1668 9.91544 14.3438 9.85135 14.5369L9.56736 15.3888H8.43851L8.15452 14.5369C8.09097 14.341 7.98556 14.1612 7.84561 14.0101C7.70566 13.859 7.53451 13.7402 7.34403 13.6618C7.15356 13.5835 6.94832 13.5475 6.74255 13.5564C6.53678 13.5653 6.33541 13.6188 6.1524 13.7133L5.34304 14.118L4.56207 13.337L4.98805 12.549C5.08254 12.366 5.13609 12.1646 5.14499 11.9588C5.15388 11.753 5.1179 11.5478 5.03955 11.3573C4.9612 11.1669 4.84235 10.9957 4.69124 10.8558C4.54014 10.7158 4.3604 10.6104 4.16449 10.5468L3.31252 10.2629V9.1553L4.16449 8.87132C4.3604 8.80777 4.54014 8.70236 4.69124 8.56241C4.84235 8.42245 4.9612 8.2513 5.03955 8.06083C5.1179 7.87035 5.15388 7.66511 5.14499 7.45934C5.13609 7.25358 5.08254 7.0522 4.98805 6.8692L4.58337 6.08113L5.36434 5.30016L6.1524 5.70485C6.33541 5.79934 6.53678 5.85289 6.74255 5.86178C6.94832 5.87068 7.15356 5.8347 7.34403 5.75635C7.53451 5.678 7.70566 5.55915 7.84561 5.40804C7.98556 5.25694 8.09097 5.07719 8.15452 4.88128L8.43851 4.02932H9.54606L9.83005 4.88128C9.8936 5.07719 9.999 5.25694 10.139 5.40804C10.2789 5.55915 10.4501 5.678 10.6405 5.75635C10.831 5.8347 11.0363 5.87068 11.242 5.86178C11.4478 5.85289 11.6492 5.79934 11.8322 5.70485L12.6415 5.30016L13.4225 6.08113L12.9965 6.8692C12.9058 7.05127 12.8553 7.2507 12.8483 7.45399C12.8414 7.65729 12.8782 7.8597 12.9563 8.04752C13.0344 8.23535 13.152 8.4042 13.301 8.54266C13.45 8.68111 13.627 8.78593 13.8201 8.85002L14.672 9.134V10.2629ZM8.99228 6.8692C8.43061 6.8692 7.88155 7.03576 7.41453 7.34781C6.94751 7.65986 6.58352 8.10338 6.36858 8.6223C6.15363 9.14122 6.09739 9.71223 6.20697 10.2631C6.31655 10.814 6.58702 11.32 6.98418 11.7172C7.38135 12.1143 7.88737 12.3848 8.43825 12.4944C8.98913 12.604 9.56014 12.5477 10.0791 12.3328C10.598 12.1178 11.0415 11.7538 11.3536 11.2868C11.6656 10.8198 11.8322 10.2708 11.8322 9.70908C11.8322 8.9559 11.533 8.23356 11.0004 7.70098C10.4678 7.1684 9.74547 6.8692 8.99228 6.8692ZM8.99228 11.129C8.71145 11.129 8.43691 11.0457 8.20341 10.8897C7.9699 10.7337 7.7879 10.5119 7.68043 10.2525C7.57296 9.99301 7.54484 9.7075 7.59963 9.43206C7.65441 9.15662 7.78965 8.90361 7.98823 8.70503C8.18682 8.50645 8.43983 8.37121 8.71527 8.31642C8.99071 8.26163 9.27621 8.28975 9.53567 8.39723C9.79513 8.5047 10.0169 8.6867 10.1729 8.9202C10.3289 9.15371 10.4122 9.42824 10.4122 9.70908C10.4122 10.0857 10.2626 10.4468 9.99633 10.7131C9.73004 10.9794 9.36887 11.129 8.99228 11.129Z" fill="#B3F1FF"/>
<path d="M27.6433 14.613C26.9098 14.613 26.0348 14.5423 25.0185 14.4009V13.3271C26.0437 13.5481 26.9451 13.6586 27.7228 13.6586C28.3768 13.6586 28.8541 13.5879 29.1546 13.4465C29.455 13.2962 29.6053 13.0222 29.6053 12.6246V11.511C29.6053 11.1398 29.4992 10.8791 29.2871 10.7289C29.075 10.5786 28.7038 10.5035 28.1736 10.5035H27.1661C26.3265 10.5035 25.7299 10.3356 25.3764 9.99976C25.0229 9.66392 24.8462 9.1425 24.8462 8.43548V7.74614C24.8462 7.27775 24.9478 6.89772 25.1511 6.60608C25.3632 6.31444 25.7123 6.09791 26.1983 5.95651C26.6933 5.81511 27.3693 5.74441 28.2266 5.74441C28.801 5.74441 29.539 5.79301 30.4404 5.89023V6.85796C29.4329 6.70771 28.6641 6.63259 28.1338 6.63259C27.3119 6.63259 26.7684 6.71213 26.5032 6.87121C26.2293 7.03913 26.0923 7.31752 26.0923 7.70637V8.68736C26.0923 8.98784 26.1983 9.20878 26.4104 9.35019C26.6314 9.48275 27.007 9.54903 27.5373 9.54903H28.5713C29.1634 9.54903 29.6229 9.61974 29.9499 9.76114C30.2858 9.90254 30.52 10.1191 30.6525 10.4107C30.7939 10.6935 30.8646 11.078 30.8646 11.564V12.1871C30.8646 12.7969 30.7498 13.2785 30.52 13.632C30.299 13.9856 29.9544 14.2374 29.486 14.3877C29.0176 14.5379 28.4033 14.613 27.6433 14.613ZM35.3366 14.613C33.3746 14.613 32.3936 13.959 32.3936 12.6511V10.1191C32.3936 9.34135 32.6145 8.78457 33.0564 8.44874C33.5072 8.10407 34.2318 7.93174 35.2305 7.93174C36.1761 7.93174 36.8566 8.09523 37.272 8.42223C37.6962 8.74922 37.9083 9.31484 37.9083 10.1191V11.5375H33.5999V12.5052C33.5999 12.9471 33.7546 13.2653 34.0639 13.4597C34.3732 13.6541 34.8505 13.7514 35.4956 13.7514C36.1054 13.7514 36.8257 13.6453 37.6564 13.4332V14.3479C36.8434 14.5247 36.0701 14.613 35.3366 14.613ZM36.7152 10.7554V9.74788C36.7152 9.35902 36.5959 9.09389 36.3573 8.95249C36.1275 8.80225 35.7298 8.72713 35.1642 8.72713C34.6163 8.72713 34.2186 8.80225 33.9711 8.95249C33.7237 9.09389 33.5999 9.35902 33.5999 9.74788V10.7554H36.7152ZM42.4176 14.613C41.8697 14.613 41.4411 14.5556 41.1317 14.4407C40.8224 14.317 40.5971 14.1137 40.4557 13.8309C40.3231 13.5393 40.2568 13.1327 40.2568 12.6113V8.84644H38.8251V8.0643H40.2568V6.07582H41.4631V8.0643H43.7565V8.84644H41.4631V12.6776C41.4631 12.9957 41.4985 13.2344 41.5692 13.3934C41.6487 13.5525 41.7813 13.6674 41.9669 13.7381C42.1613 13.8 42.4397 13.8309 42.8021 13.8309C42.9169 13.8309 43.2351 13.7955 43.7565 13.7248V14.507C43.3058 14.5777 42.8595 14.613 42.4176 14.613ZM47.7513 14.613C47.2034 14.613 46.7747 14.5556 46.4654 14.4407C46.1561 14.317 45.9307 14.1137 45.7893 13.8309C45.6568 13.5393 45.5905 13.1327 45.5905 12.6113V8.84644H44.1588V8.0643H45.5905V6.07582H46.7968V8.0643H49.0902V8.84644H46.7968V12.6776C46.7968 12.9957 46.8322 13.2344 46.9029 13.3934C46.9824 13.5525 47.115 13.6674 47.3006 13.7381C47.495 13.8 47.7734 13.8309 48.1357 13.8309C48.2506 13.8309 48.5688 13.7955 49.0902 13.7248V14.507C48.6395 14.5777 48.1932 14.613 47.7513 14.613ZM50.3939 5.74441H51.587V6.99052H50.3939V5.74441ZM50.3939 8.0643H51.587V14.4805H50.3939V8.0643ZM53.6563 8.0643H54.8494V8.84644C54.9731 8.23664 55.6757 7.93174 56.9571 7.93174C57.7791 7.93174 58.3535 8.08198 58.6805 8.38246C59.0163 8.6741 59.1842 9.13808 59.1842 9.7744V14.4805H57.9912V9.84068C57.9912 9.67276 57.9779 9.53578 57.9514 9.42973C57.9249 9.32367 57.8719 9.21762 57.7923 9.11157C57.6156 8.89063 57.2223 8.78015 56.6125 8.78015C56.1441 8.78015 55.7817 8.81551 55.5254 8.88621C55.278 8.94807 55.1012 9.05412 54.9952 9.20436C54.898 9.3546 54.8494 9.56671 54.8494 9.84068V14.4805H53.6563V8.0643ZM63.6814 17.3969C62.8065 17.3969 62.0685 17.3483 61.4676 17.2511V16.4027C62.5281 16.5264 63.3014 16.5883 63.7875 16.5883C64.3973 16.5883 64.8392 16.491 65.1131 16.2966C65.3959 16.1022 65.5373 15.7796 65.5373 15.3289V13.7911C65.5197 14.0739 65.3252 14.2816 64.9541 14.4142C64.5917 14.5468 64.1322 14.613 63.5754 14.613C62.9125 14.613 62.3955 14.5512 62.0244 14.4274C61.662 14.3037 61.4013 14.1004 61.2422 13.8176C61.092 13.5348 61.0169 13.1504 61.0169 12.6643V10.0528C61.0169 9.29274 61.2201 8.74922 61.6267 8.42223C62.042 8.09523 62.7181 7.93174 63.6549 7.93174C64.7685 7.93174 65.4225 8.18361 65.6169 8.68736V8.0643H66.7304V15.0903C66.7304 15.6824 66.62 16.1464 66.399 16.4822C66.1781 16.818 65.8467 17.0522 65.4048 17.1848C64.9629 17.3262 64.3884 17.3969 63.6814 17.3969ZM63.8273 13.8176C64.4547 13.8176 64.8966 13.7425 65.1529 13.5923C65.4092 13.442 65.5373 13.1592 65.5373 12.7439V9.84068C65.5373 9.54903 65.4887 9.32809 65.3915 9.17785C65.3031 9.02761 65.1352 8.92156 64.8878 8.85969C64.6403 8.78899 64.278 8.75364 63.8007 8.75364C63.35 8.75364 63.0098 8.78457 62.78 8.84644C62.559 8.9083 62.4044 9.01877 62.316 9.17785C62.2365 9.32809 62.1967 9.54903 62.1967 9.84068V12.7439C62.1967 13.0443 62.2409 13.2697 62.3293 13.4199C62.4176 13.5702 62.5767 13.6762 62.8065 13.7381C63.0363 13.7911 63.3765 13.8176 63.8273 13.8176ZM70.7649 14.613C70.0844 14.613 69.3508 14.56 68.5643 14.454V13.5393C69.5983 13.7072 70.3407 13.7911 70.7914 13.7911C71.357 13.7911 71.7635 13.7381 72.011 13.632C72.2584 13.5172 72.3822 13.3095 72.3822 13.009V12.3594C72.3822 12.0855 72.2894 11.891 72.1038 11.7761C71.9182 11.6612 71.6177 11.6038 71.2023 11.6038H70.4732C69.8104 11.6038 69.3022 11.4668 68.9487 11.1928C68.6041 10.9189 68.4317 10.5344 68.4317 10.0395V9.44298C68.4317 8.43548 69.3862 7.93174 71.2951 7.93174C71.4365 7.93174 72.0861 7.96709 73.2439 8.03779V8.89946C72.4573 8.77574 71.79 8.71387 71.2421 8.71387C70.6146 8.71387 70.186 8.77574 69.9562 8.89946C69.7264 9.02319 69.6116 9.23088 69.6116 9.52252V10.066C69.6116 10.4991 70.0048 10.7156 70.7914 10.7156H71.5338C72.8859 10.7156 73.562 11.2194 73.562 12.2269V12.7836C73.562 13.4465 73.3322 13.9193 72.8727 14.2021C72.4131 14.476 71.7105 14.613 70.7649 14.613Z" fill="#B3F1FF"/>
</svg>
