<svg width="34" height="34" viewBox="0 0 34 34" fill="none" xmlns="http://www.w3.org/2000/svg">
<mask id="mask0_2283_8358" style="mask-type:alpha" maskUnits="userSpaceOnUse" x="0" y="0" width="34" height="34">
<rect x="0.425781" width="33.15" height="33.15" fill="#D9D9D9"/>
</mask>
<g mask="url(#mask0_2283_8358)">
<path d="M17.0004 5.52461C20.0852 5.52461 22.698 6.59508 24.839 8.73602C26.9799 10.877 28.0504 13.4898 28.0504 16.5746C28.0504 19.6594 26.9799 22.2723 24.839 24.4132C22.698 26.5541 20.0852 27.6246 17.0004 27.6246C13.9156 27.6246 11.3027 26.5541 9.1618 24.4132C7.02086 22.2723 5.95039 19.6594 5.95039 16.5746C5.95039 13.4898 7.02086 10.877 9.1618 8.73602C11.3027 6.59508 13.9156 5.52461 17.0004 5.52461ZM17.0004 24.8621C19.3025 24.8621 21.2592 24.0564 22.8707 22.4449C24.4822 20.8335 25.2879 18.8767 25.2879 16.5746C25.2879 14.2725 24.4822 12.3158 22.8707 10.7043C21.2592 9.09284 19.3025 8.28711 17.0004 8.28711C14.6983 8.28711 12.7415 9.09284 11.1301 10.7043C9.51862 12.3158 8.71289 14.2725 8.71289 16.5746C8.71289 18.8767 9.51862 20.8335 11.1301 22.4449C12.7415 24.0564 14.6983 24.8621 17.0004 24.8621ZM17.0004 21.409C18.1054 21.409 19.0953 21.0924 19.9701 20.4594C20.8449 19.8263 21.4664 18.9918 21.8348 17.9559H12.166C12.5343 18.9918 13.1559 19.8263 14.0307 20.4594C14.9055 21.0924 15.8954 21.409 17.0004 21.409ZM12.166 13.8121C12.166 14.2035 12.2984 14.5315 12.5631 14.7963C12.8279 15.061 13.1559 15.1934 13.5473 15.1934C13.9386 15.1934 14.2667 15.061 14.5314 14.7963C14.7961 14.5315 14.9285 14.2035 14.9285 13.8121C14.9285 13.4208 14.7961 13.0927 14.5314 12.828C14.2667 12.5632 13.9386 12.4309 13.5473 12.4309C13.1559 12.4309 12.8279 12.5632 12.5631 12.828C12.2984 13.0927 12.166 13.4208 12.166 13.8121ZM19.0723 13.8121C19.0723 14.2035 19.2046 14.5315 19.4694 14.7963C19.7341 15.061 20.0622 15.1934 20.4535 15.1934C20.8449 15.1934 21.1729 15.061 21.4377 14.7963C21.7024 14.5315 21.8348 14.2035 21.8348 13.8121C21.8348 13.4208 21.7024 13.0927 21.4377 12.828C21.1729 12.5632 20.8449 12.4309 20.4535 12.4309C20.0622 12.4309 19.7341 12.5632 19.4694 12.828C19.2046 13.0927 19.0723 13.4208 19.0723 13.8121ZM1.80664 8.28711V4.14336C1.80664 3.38367 2.07714 2.73333 2.61813 2.19234C3.15911 1.65135 3.80945 1.38086 4.56914 1.38086H8.71289V4.14336H4.56914V8.28711H1.80664ZM8.71289 31.7684H4.56914C3.80945 31.7684 3.15911 31.4979 2.61813 30.9569C2.07714 30.4159 1.80664 29.7655 1.80664 29.0059V24.8621H4.56914V29.0059H8.71289V31.7684ZM25.2879 31.7684V29.0059H29.4316V24.8621H32.1941V29.0059C32.1941 29.7655 31.9236 30.4159 31.3827 30.9569C30.8417 31.4979 30.1913 31.7684 29.4316 31.7684H25.2879ZM29.4316 8.28711V4.14336H25.2879V1.38086H29.4316C30.1913 1.38086 30.8417 1.65135 31.3827 2.19234C31.9236 2.73333 32.1941 3.38367 32.1941 4.14336V8.28711H29.4316Z" fill="#1C1B1F"/>
</g>
</svg>
