<svg width="57" height="34" viewBox="0 0 57 34" fill="none" xmlns="http://www.w3.org/2000/svg">
<mask id="mask0_1_2389" style="mask-type:alpha" maskUnits="userSpaceOnUse" x="0" y="7" width="7" height="7">
<rect x="0.830078" y="7.29297" width="5.61" height="6.12" fill="#D9D9D9"/>
</mask>
<g mask="url(#mask0_1_2389)">
<path d="M3.07386 11.2816L3.63486 10.8099L4.19586 11.2816L3.98549 10.5039L4.51143 10.0959H3.85693L3.63486 9.3054L3.4128 10.0959H2.7583L3.28424 10.5039L3.07386 11.2816ZM2.19146 12.6459L2.73493 10.7079L1.29736 9.5859H3.07386L3.63486 7.5459L4.19586 9.5859H5.97236L4.5348 10.7079L5.07827 12.6459L3.63486 11.4474L2.19146 12.6459Z" fill="white"/>
</g>
<mask id="mask1_1_2389" style="mask-type:alpha" maskUnits="userSpaceOnUse" x="6" y="23" width="7" height="7">
<rect x="6.44043" y="23.6133" width="5.61" height="6.12" fill="#D9D9D9"/>
</mask>
<g mask="url(#mask1_1_2389)">
<path d="M8.68421 27.602L9.24521 27.1302L9.80622 27.602L9.59584 26.8242L10.1218 26.4162H9.46728L9.24521 25.6257L9.02315 26.4162H8.36865L8.89459 26.8242L8.68421 27.602ZM7.80181 28.9662L8.34528 27.0282L6.90771 25.9062H8.68421L9.24521 23.8662L9.80622 25.9062H11.5827L10.1452 27.0282L10.6886 28.9662L9.24521 27.7677L7.80181 28.9662Z" fill="white"/>
</g>
<mask id="mask2_1_2389" style="mask-type:alpha" maskUnits="userSpaceOnUse" x="26" y="20" width="6" height="7">
<rect x="26.3311" y="20.5508" width="5.61" height="6.12" fill="#D9D9D9"/>
</mask>
<g mask="url(#mask2_1_2389)">
<path d="M28.5748 24.5395L29.1358 24.0677L29.6968 24.5395L29.4865 23.7617L30.0124 23.3537H29.3579L29.1358 22.5632L28.9138 23.3537H28.2593L28.7852 23.7617L28.5748 24.5395ZM27.6924 25.9037L28.2359 23.9657L26.7983 22.8437H28.5748L29.1358 20.8037L29.6968 22.8437H31.4733L30.0358 23.9657L30.5792 25.9037L29.1358 24.7052L27.6924 25.9037Z" fill="white"/>
</g>
<mask id="mask3_1_2389" style="mask-type:alpha" maskUnits="userSpaceOnUse" x="46" y="6" width="6" height="7">
<rect x="46.2197" y="6.27344" width="5.61" height="6.12" fill="#D9D9D9"/>
</mask>
<g mask="url(#mask3_1_2389)">
<path d="M48.4635 10.2621L49.0245 9.79037L49.5855 10.2621L49.3751 9.48437L49.9011 9.07637H49.2466L49.0245 8.28587L48.8024 9.07637H48.1479L48.6739 9.48437L48.4635 10.2621ZM47.5811 11.6264L48.1246 9.68837L46.687 8.56637H48.4635L49.0245 6.52637L49.5855 8.56637H51.362L49.9244 9.68837L50.4679 11.6264L49.0245 10.4279L47.5811 11.6264Z" fill="white"/>
</g>
<mask id="mask4_1_2389" style="mask-type:alpha" maskUnits="userSpaceOnUse" x="36" y="11" width="4" height="4">
<rect x="36.5303" y="11.3721" width="2.805" height="3.06" fill="#D9D9D9"/>
</mask>
<g mask="url(#mask4_1_2389)">
<path d="M37.6524 13.3659L37.9329 13.13L38.2134 13.3659L38.1082 12.977L38.3712 12.773H38.0439L37.9329 12.3778L37.8219 12.773H37.4946L37.7576 12.977L37.6524 13.3659ZM37.2112 14.048L37.4829 13.079L36.7642 12.518H37.6524L37.9329 11.498L38.2134 12.518H39.1017L38.3829 13.079L38.6546 14.048L37.9329 13.4488L37.2112 14.048Z" fill="white"/>
</g>
<mask id="mask5_1_2389" style="mask-type:alpha" maskUnits="userSpaceOnUse" x="15" y="16" width="3" height="4">
<rect x="15.1094" y="16.4736" width="2.805" height="3.06" fill="#D9D9D9"/>
</mask>
<g mask="url(#mask5_1_2389)">
<path d="M16.231 18.4685L16.5115 18.2326L16.792 18.4685L16.6868 18.0796L16.9498 17.8756H16.6226L16.5115 17.4803L16.4005 17.8756H16.0732L16.3362 18.0796L16.231 18.4685ZM15.7898 19.1506L16.0616 18.1816L15.3428 17.6206H16.231L16.5115 16.6006L16.792 17.6206H17.6803L16.9615 18.1816L17.2332 19.1506L16.5115 18.5513L15.7898 19.1506Z" fill="white"/>
</g>
<mask id="mask6_1_2389" style="mask-type:alpha" maskUnits="userSpaceOnUse" x="19" y="0" width="11" height="12">
<rect x="19.7007" y="0.664062" width="9.8175" height="10.71" fill="#D9D9D9"/>
</mask>
<g mask="url(#mask6_1_2389)">
<path d="M23.6279 7.64889L24.6097 6.82333L25.5914 7.64889L25.2233 6.28783L26.1437 5.57383H24.9983L24.6097 4.19045L24.2211 5.57383H23.0757L23.9961 6.28783L23.6279 7.64889ZM22.0837 10.0363L23.0348 6.64483L20.519 4.68133H23.6279L24.6097 1.11133L25.5914 4.68133H28.7003L26.1846 6.64483L27.1356 10.0363L24.6097 7.93895L22.0837 10.0363Z" fill="white"/>
</g>
<mask id="mask7_1_2389" style="mask-type:alpha" maskUnits="userSpaceOnUse" x="46" y="22" width="11" height="12">
<rect x="46.2197" y="22.5967" width="9.8175" height="10.71" fill="#D9D9D9"/>
</mask>
<g mask="url(#mask7_1_2389)">
<path d="M50.147 29.5815L51.1287 28.7559L52.1105 29.5815L51.7423 28.2204L52.6627 27.5064H51.5173L51.1287 26.1231L50.7401 27.5064H49.5947L50.5151 28.2204L50.147 29.5815ZM48.6027 31.9689L49.5538 28.5774L47.0381 26.6139H50.147L51.1287 23.0439L52.1105 26.6139H55.2193L52.7036 28.5774L53.6547 31.9689L51.1287 29.8716L48.6027 31.9689Z" fill="white"/>
</g>
</svg>
