<svg width="143" height="35" viewBox="0 0 143 35" fill="none" xmlns="http://www.w3.org/2000/svg">
<g filter="url(#filter0_dii_1_3272)">
<g clip-path="url(#clip0_1_3272)">
<rect x="2" width="87.04" height="32" rx="16" fill="#07A7C9"/>
<circle cx="20.0796" cy="16.1584" r="52.96" fill="#FFFCFC" fill-opacity="0.1"/>
<circle cx="20.0794" cy="16.1582" r="36.96" fill="white" fill-opacity="0.1"/>
<circle cx="20.2394" cy="15.9974" r="22.08" fill="white" fill-opacity="0.1"/>
<path fill-rule="evenodd" clip-rule="evenodd" d="M105.999 16.3189C105.999 23.2112 100.412 28.7986 93.5198 28.7989C93.5195 34.2772 89.0783 38.7182 83.5998 38.7182C80.6232 38.7182 77.9528 37.4072 76.1346 35.3311C74.6191 36.6443 72.642 37.4389 70.4793 37.4389C69.208 37.4389 68.0009 37.1643 66.9139 36.6713C65.9627 39.5346 63.2623 41.5997 60.0796 41.5997C57.116 41.5997 54.5707 39.8092 53.4662 37.251C51.9352 39.6711 49.235 41.278 46.1594 41.278C44.0207 41.278 42.0634 40.5009 40.5547 39.2137C39.4443 39.9139 38.1292 40.319 36.7194 40.319C34.2123 40.319 32.0045 39.0376 30.7152 37.094C29.4742 38.1092 27.8881 38.7182 26.1597 38.7182C24.1655 38.7182 22.3606 37.9074 21.0568 36.5976C20.1569 37.5127 18.9047 38.0802 17.5199 38.0802C16.0217 38.0802 14.6786 37.416 13.7691 36.3659C12.4183 38.7272 9.87461 40.3184 6.95931 40.3184C4.07923 40.3184 1.56187 38.7654 0.198954 36.4511C-0.730192 37.2658 -1.94769 37.7597 -3.28053 37.7597C-5.45786 37.7597 -7.32737 36.4418 -8.13485 34.5601C-9.45222 35.5634 -11.0968 36.159 -12.8805 36.159C-17.2104 36.159 -20.7205 32.6489 -20.7205 28.319C-20.7205 23.9891 -17.2104 20.479 -12.8805 20.479C-8.8221 20.479 -5.48396 23.5627 -5.08121 27.5147C-4.51927 27.3109 -3.91288 27.1997 -3.28053 27.1997C-1.94818 27.1997 -0.731085 27.6932 0.197931 28.5074C1.56062 26.1922 4.07851 24.6384 6.95931 24.6384C10.2133 24.6384 13.0043 26.6208 14.1904 29.4437C15.0706 28.6461 16.2385 28.1602 17.5199 28.1602C18.2525 28.1602 18.9479 28.319 19.5738 28.6041C20.6925 26.0794 23.2204 24.3182 26.1597 24.3182C28.6668 24.3182 30.8746 25.5996 32.1639 27.5432C33.4049 26.528 34.9911 25.919 36.7194 25.919C37.8675 25.919 38.9528 26.1877 39.9159 26.6657C41.4889 25.0218 43.7046 23.998 46.1594 23.998C50.008 23.998 53.2688 26.5143 54.3865 29.9913C55.7036 28.2929 57.7639 27.1997 60.0796 27.1997C60.7247 27.1997 61.35 27.2845 61.945 27.4437C62.5952 23.3157 66.1686 20.1589 70.4793 20.1589C72.6416 20.1589 74.6185 20.9532 76.1339 22.2661C77.4812 20.7274 79.2966 19.6088 81.3578 19.1326C81.1495 18.2283 81.0394 17.2864 81.0394 16.3189C81.0394 9.42635 86.6268 3.83887 93.5193 3.83887C100.412 3.83887 105.999 9.42635 105.999 16.3189Z" fill="#E8FCFE"/>
<path fill-rule="evenodd" clip-rule="evenodd" d="M104.719 13.4382C104.719 20.3305 99.1318 25.9179 92.2395 25.9182C92.2392 31.3965 87.798 35.8375 82.3195 35.8375C79.3429 35.8375 76.6725 34.5265 74.8543 32.4504C73.3388 33.7636 71.3617 34.5582 69.199 34.5582C67.9277 34.5582 66.7206 34.2836 65.6336 33.7906C64.6824 36.6539 61.982 38.719 58.7993 38.719C55.8358 38.719 53.2904 36.9286 52.1859 34.3703C50.6549 36.7904 47.9547 38.3974 44.8792 38.3974C42.7404 38.3974 40.7832 37.6202 39.2744 36.333C38.164 37.0332 36.8489 37.4383 35.4392 37.4383C32.9321 37.4383 30.7243 36.157 29.435 34.2134C28.1939 35.2285 26.6078 35.8375 24.8794 35.8375C22.8852 35.8375 21.0804 35.0268 19.7765 33.7169C18.8767 34.632 17.6244 35.1995 16.2396 35.1995C14.7414 35.1995 13.3983 34.5353 12.4889 33.4852C11.138 35.8465 8.59434 37.4377 5.67904 37.4377C2.79896 37.4377 0.281601 35.8847 -1.08132 33.5705C-2.01047 34.3852 -3.22796 34.879 -4.56081 34.879C-6.73814 34.879 -8.60765 33.5611 -9.41513 31.6795C-10.7325 32.6827 -12.3771 33.2784 -14.1607 33.2784C-18.4906 33.2784 -22.0007 29.7683 -22.0007 25.4384C-22.0007 21.1084 -18.4906 17.5984 -14.1607 17.5984C-10.1024 17.5984 -6.76424 20.682 -6.36149 24.634C-5.79954 24.4302 -5.19316 24.319 -4.56081 24.319C-3.22845 24.319 -2.01136 24.8125 -1.08234 25.6267C0.280344 23.3115 2.79824 21.7577 5.67904 21.7577C8.93302 21.7577 11.724 23.7401 12.9101 26.5631C13.7903 25.7655 14.9582 25.2795 16.2396 25.2795C16.9722 25.2795 17.6677 25.4384 18.2935 25.7234C19.4123 23.1988 21.9402 21.4375 24.8794 21.4375C27.3865 21.4375 29.5943 22.7189 30.8836 24.6625C32.1246 23.6474 33.7108 23.0383 35.4392 23.0383C36.5872 23.0383 37.6726 23.3071 38.6357 23.785C40.2086 22.1411 42.4243 21.1174 44.8792 21.1174C48.7277 21.1174 51.9885 23.6336 53.1062 27.1106C54.4233 25.4122 56.4836 24.319 58.7993 24.319C59.4444 24.319 60.0697 24.4039 60.6647 24.563C61.315 20.4351 64.8883 17.2782 69.199 17.2782C71.3614 17.2782 73.3382 18.0726 74.8536 19.3854C76.201 17.8467 78.0163 16.7281 80.0776 16.2519C79.8692 15.3476 79.7591 14.4058 79.7591 13.4382C79.7591 6.54568 85.3466 0.958191 92.2391 0.958191C99.1316 0.958191 104.719 6.54568 104.719 13.4382Z" fill="#E8FCFE" fill-opacity="0.6"/>
<g clip-path="url(#clip1_1_3272)">
<g filter="url(#filter1_dii_1_3272)">
<circle cx="20.0799" cy="16.16" r="11.68" fill="#FCDA65"/>
</g>
</g>
</g>
</g>
<mask id="mask0_1_3272" style="mask-type:alpha" maskUnits="userSpaceOnUse" x="111" y="0" width="32" height="32">
<rect x="111.001" y="0.313721" width="31.3725" height="31.3725" fill="#D9D9D9"/>
</mask>
<g mask="url(#mask0_1_3272)">
<path d="M126.687 5.54248C125.968 5.54248 125.353 5.28649 124.841 4.77451C124.329 4.26252 124.073 3.64705 124.073 2.9281C124.073 2.20915 124.329 1.59368 124.841 1.08169C125.353 0.569712 125.968 0.313721 126.687 0.313721C127.406 0.313721 128.021 0.569712 128.533 1.08169C129.045 1.59368 129.301 2.20915 129.301 2.9281C129.301 3.64705 129.045 4.26252 128.533 4.77451C128.021 5.28649 127.406 5.54248 126.687 5.54248ZM122.766 25.1503V9.46405C121.458 9.35511 120.129 9.19172 118.779 8.97385C117.428 8.75599 116.142 8.48366 114.922 8.15686L115.576 5.54248C117.275 6 119.084 6.33224 121.001 6.53921C122.918 6.74618 124.813 6.84967 126.687 6.84967C128.561 6.84967 130.456 6.74618 132.373 6.53921C134.291 6.33224 136.099 6 137.798 5.54248L138.452 8.15686C137.232 8.48366 135.946 8.75599 134.596 8.97385C133.245 9.19172 131.916 9.35511 130.609 9.46405V25.1503H127.994V17.3072H125.38V25.1503H122.766ZM121.458 31.6863C121.088 31.6863 120.777 31.561 120.527 31.3105C120.276 31.0599 120.151 30.7495 120.151 30.3791C120.151 30.0087 120.276 29.6983 120.527 29.4477C120.777 29.1972 121.088 29.0719 121.458 29.0719C121.829 29.0719 122.139 29.1972 122.39 29.4477C122.64 29.6983 122.766 30.0087 122.766 30.3791C122.766 30.7495 122.64 31.0599 122.39 31.3105C122.139 31.561 121.829 31.6863 121.458 31.6863ZM126.687 31.6863C126.317 31.6863 126.006 31.561 125.756 31.3105C125.505 31.0599 125.38 30.7495 125.38 30.3791C125.38 30.0087 125.505 29.6983 125.756 29.4477C126.006 29.1972 126.317 29.0719 126.687 29.0719C127.057 29.0719 127.368 29.1972 127.618 29.4477C127.869 29.6983 127.994 30.0087 127.994 30.3791C127.994 30.7495 127.869 31.0599 127.618 31.3105C127.368 31.561 127.057 31.6863 126.687 31.6863ZM131.916 31.6863C131.545 31.6863 131.235 31.561 130.984 31.3105C130.734 31.0599 130.609 30.7495 130.609 30.3791C130.609 30.0087 130.734 29.6983 130.984 29.4477C131.235 29.1972 131.545 29.0719 131.916 29.0719C132.286 29.0719 132.597 29.1972 132.847 29.4477C133.098 29.6983 133.223 30.0087 133.223 30.3791C133.223 30.7495 133.098 31.0599 132.847 31.3105C132.597 31.561 132.286 31.6863 131.916 31.6863Z" fill="#1C1B1F"/>
</g>
<defs>
<filter id="filter0_dii_1_3272" x="0.72" y="-1.28" width="89.6" height="36.16" filterUnits="userSpaceOnUse" color-interpolation-filters="sRGB">
<feFlood flood-opacity="0" result="BackgroundImageFix"/>
<feColorMatrix in="SourceAlpha" type="matrix" values="0 0 0 0 0 0 0 0 0 0 0 0 0 0 0 0 0 0 127 0" result="hardAlpha"/>
<feOffset dy="1.6"/>
<feGaussianBlur stdDeviation="0.64"/>
<feComposite in2="hardAlpha" operator="out"/>
<feColorMatrix type="matrix" values="0 0 0 0 1 0 0 0 0 1 0 0 0 0 1 0 0 0 0.25 0"/>
<feBlend mode="normal" in2="BackgroundImageFix" result="effect1_dropShadow_1_3272"/>
<feBlend mode="normal" in="SourceGraphic" in2="effect1_dropShadow_1_3272" result="shape"/>
<feColorMatrix in="SourceAlpha" type="matrix" values="0 0 0 0 0 0 0 0 0 0 0 0 0 0 0 0 0 0 127 0" result="hardAlpha"/>
<feOffset dy="1.28"/>
<feGaussianBlur stdDeviation="0.48"/>
<feComposite in2="hardAlpha" operator="arithmetic" k2="-1" k3="1"/>
<feColorMatrix type="matrix" values="0 0 0 0 0 0 0 0 0 0 0 0 0 0 0 0 0 0 0.3 0"/>
<feBlend mode="normal" in2="shape" result="effect2_innerShadow_1_3272"/>
<feColorMatrix in="SourceAlpha" type="matrix" values="0 0 0 0 0 0 0 0 0 0 0 0 0 0 0 0 0 0 127 0" result="hardAlpha"/>
<feOffset dy="-1.28"/>
<feGaussianBlur stdDeviation="0.64"/>
<feComposite in2="hardAlpha" operator="arithmetic" k2="-1" k3="1"/>
<feColorMatrix type="matrix" values="0 0 0 0 0 0 0 0 0 0 0 0 0 0 0 0 0 0 0.25 0"/>
<feBlend mode="normal" in2="effect2_innerShadow_1_3272" result="effect3_innerShadow_1_3272"/>
</filter>
<filter id="filter1_dii_1_3272" x="7.1199" y="2.88004" width="25.9201" height="27.52" filterUnits="userSpaceOnUse" color-interpolation-filters="sRGB">
<feFlood flood-opacity="0" result="BackgroundImageFix"/>
<feColorMatrix in="SourceAlpha" type="matrix" values="0 0 0 0 0 0 0 0 0 0 0 0 0 0 0 0 0 0 127 0" result="hardAlpha"/>
<feOffset dy="1.28"/>
<feGaussianBlur stdDeviation="0.64"/>
<feComposite in2="hardAlpha" operator="out"/>
<feColorMatrix type="matrix" values="0 0 0 0 0 0 0 0 0 0 0 0 0 0 0 0 0 0 0.25 0"/>
<feBlend mode="normal" in2="BackgroundImageFix" result="effect1_dropShadow_1_3272"/>
<feBlend mode="normal" in="SourceGraphic" in2="effect1_dropShadow_1_3272" result="shape"/>
<feColorMatrix in="SourceAlpha" type="matrix" values="0 0 0 0 0 0 0 0 0 0 0 0 0 0 0 0 0 0 127 0" result="hardAlpha"/>
<feOffset dx="0.96" dy="1.28"/>
<feGaussianBlur stdDeviation="0.912"/>
<feComposite in2="hardAlpha" operator="arithmetic" k2="-1" k3="1"/>
<feColorMatrix type="matrix" values="0 0 0 0 0.97 0 0 0 0 0.948398 0 0 0 0 0.753973 0 0 0 1 0"/>
<feBlend mode="normal" in2="shape" result="effect2_innerShadow_1_3272"/>
<feColorMatrix in="SourceAlpha" type="matrix" values="0 0 0 0 0 0 0 0 0 0 0 0 0 0 0 0 0 0 127 0" result="hardAlpha"/>
<feOffset dy="-1.6"/>
<feGaussianBlur stdDeviation="0.928"/>
<feComposite in2="hardAlpha" operator="arithmetic" k2="-1" k3="1"/>
<feColorMatrix type="matrix" values="0 0 0 0 0 0 0 0 0 0 0 0 0 0 0 0 0 0 0.25 0"/>
<feBlend mode="normal" in2="effect2_innerShadow_1_3272" result="effect3_innerShadow_1_3272"/>
</filter>
<clipPath id="clip0_1_3272">
<rect x="2" width="87.04" height="32" rx="16" fill="white"/>
</clipPath>
<clipPath id="clip1_1_3272">
<rect x="8.3999" y="4.47949" width="23.36" height="23.36" rx="11.68" fill="white"/>
</clipPath>
</defs>
</svg>
