<svg width="22" height="22" viewBox="0 0 22 22" fill="none" xmlns="http://www.w3.org/2000/svg">
<mask id="mask0_2038_17708" style="mask-type:alpha" maskUnits="userSpaceOnUse" x="0" y="0" width="22" height="22">
<rect width="22" height="22" fill="#D9D9D9"/>
</mask>
<g mask="url(#mask0_2038_17708)">
<path d="M10.9077 20.1663L15.0785 9.16634H17.0035L21.1743 20.1663H19.2493L18.2639 17.3705H13.8181L12.8327 20.1663H10.9077ZM3.66602 17.4163L2.38268 16.133L7.01185 11.5038C6.47713 10.9691 5.99206 10.358 5.55664 9.67051C5.12122 8.98301 4.72018 8.20384 4.35352 7.33301H6.27852C6.58407 7.92884 6.88963 8.44829 7.19518 8.89134C7.50074 9.3344 7.8674 9.77745 8.29518 10.2205C8.79935 9.71634 9.32261 9.00974 9.86497 8.10072C10.4073 7.19169 10.816 6.32467 11.091 5.49967H0.916016V3.66634H7.33268V1.83301H9.16602V3.66634H15.5827V5.49967H12.9243C12.6035 6.59967 12.1223 7.73023 11.4806 8.89134C10.8389 10.0525 10.2049 10.9386 9.57852 11.5497L11.7785 13.7955L11.091 15.6747L8.29518 12.8101L3.66602 17.4163ZM14.391 15.7663H17.691L16.041 11.0913L14.391 15.7663Z" fill="#303030"/>
</g>
</svg>
