<svg width="24" height="24" viewBox="0 0 24 24" fill="none" xmlns="http://www.w3.org/2000/svg">
<path d="M4.07021 20.3177L4.04766 20.2884L4.02103 20.2626C1.85313 18.1684 0.5 15.2412 0.5 12C0.5 5.65943 5.65897 0.5 12 0.5C18.341 0.5 23.5 5.65943 23.5 12C23.5 15.2412 22.1469 18.1684 19.979 20.2626L19.9523 20.2884L19.9298 20.3177C19.9152 20.3368 19.8967 20.3544 19.8674 20.3732L19.8302 20.3971L19.7977 20.4272C17.7438 22.3292 15.009 23.5 12 23.5C8.99099 23.5 6.25621 22.3292 4.20233 20.4272L4.16984 20.3971L4.13256 20.3732C4.1033 20.3544 4.08484 20.3368 4.07021 20.3177ZM19.7522 18.6489L20.0331 19.5549L20.6218 18.8112C22.1052 16.9372 23 14.5731 23 12C23 5.93432 18.0662 1 12 1C5.9338 1 1 5.93432 1 12C1 14.5731 1.89479 16.9372 3.37823 18.8112L3.96692 19.5549L4.24783 18.6489C4.83785 16.7462 6.54102 15.2038 8.94199 14.484L9.91142 14.1934L9.09154 13.6C7.84079 12.6948 7.02637 11.2315 7.02637 9.58057C7.02637 6.84316 9.25698 4.61426 12 4.61426C14.743 4.61426 16.9736 6.84316 16.9736 9.58057C16.9736 11.2315 16.1592 12.6948 14.9085 13.6L14.0886 14.1934L15.058 14.484C17.459 15.2038 19.1621 16.7462 19.7522 18.6489ZM4.53243 19.7911L4.51207 20.0395L4.69817 20.2053C6.64089 21.936 9.1951 23 12 23C14.8049 23 17.3591 21.936 19.3018 20.2053L19.4879 20.0395L19.4676 19.7911C19.2112 16.6648 15.9512 14.5469 12 14.5469C8.04876 14.5469 4.78875 16.6648 4.53243 19.7911ZM12 5.11426C9.53329 5.11426 7.52637 7.11657 7.52637 9.58057C7.52637 12.0446 9.53329 14.0469 12 14.0469C14.4667 14.0469 16.4736 12.0446 16.4736 9.58057C16.4736 7.11657 14.4667 5.11426 12 5.11426Z" fill="#B8B8B8" stroke="#202020"/>
</svg>
