<svg width="60" height="54" viewBox="0 0 60 54" fill="none" xmlns="http://www.w3.org/2000/svg">
<path d="M30 13.6668C33.6819 13.6668 36.6667 10.6821 36.6667 7.00016C36.6667 3.31826 33.6819 0.333496 30 0.333496C26.3181 0.333496 23.3333 3.31826 23.3333 7.00016C23.3333 10.6821 26.3181 13.6668 30 13.6668Z" fill="#D4D2E3"/>
<path d="M60 40.3335V33.6668C52.5333 33.6668 46.1333 30.4668 41.3333 24.7335L36.8667 19.4002C35.6 17.8668 33.7333 17.0002 31.7667 17.0002H28.2667C26.3 17.0002 24.4333 17.8668 23.1667 19.4002L18.7 24.7335C13.8667 30.4668 7.46667 33.6668 0 33.6668V40.3335C9.23333 40.3335 17.3 36.4335 23.3333 29.5002V37.0002L10.4 42.1668C8.16667 43.0668 6.66667 45.2668 6.66667 47.7002C6.66667 51.0002 9.33333 53.6668 12.6333 53.6668H20V52.0002C20 47.4002 23.7333 43.6668 28.3333 43.6668H38.3333C39.2667 43.6668 40 44.4002 40 45.3335C40 46.2668 39.2667 47.0002 38.3333 47.0002H28.3333C25.5667 47.0002 23.3333 49.2335 23.3333 52.0002V53.6668H47.3667C50.6667 53.6668 53.3333 51.0002 53.3333 47.7002C53.3333 45.2668 51.8333 43.0668 49.6 42.1668L36.6667 37.0002V29.5002C42.7 36.4335 50.7667 40.3335 60 40.3335Z" fill="#D4D2E3"/>
</svg>
