<svg width="18" height="19" viewBox="0 0 18 19" fill="none" xmlns="http://www.w3.org/2000/svg">
<path d="M13.5 3.41211H4.5C2.8425 3.41211 1.5 4.75461 1.5 6.41211V12.4121C1.5 14.0696 2.8425 15.4121 4.5 15.4121H13.5C15.1575 15.4121 16.5 14.0696 16.5 12.4121V6.41211C16.5 4.75461 15.1575 3.41211 13.5 3.41211ZM12.105 10.7396C11.925 10.8896 11.6775 10.9496 11.445 10.8896L3.1125 8.84961C3.3375 8.30211 3.87 7.91211 4.5 7.91211H13.5C14.0025 7.91211 14.445 8.16711 14.7225 8.54211L12.105 10.7396ZM4.5 4.91211H13.5C14.325 4.91211 15 5.58711 15 6.41211V6.82461C14.5575 6.56961 14.0475 6.41211 13.5 6.41211H4.5C3.9525 6.41211 3.4425 6.56961 3 6.82461V6.41211C3 5.58711 3.675 4.91211 4.5 4.91211Z" fill="#3D5F57"/>
</svg>
