<svg width="272" height="97" viewBox="0 0 272 97" fill="none" xmlns="http://www.w3.org/2000/svg">
<path fill-rule="evenodd" clip-rule="evenodd" d="M321 39C321 60.5391 303.539 78 282 78C282 95.1208 268.121 109 251 109C241.698 109 233.353 104.903 227.671 98.4149C222.935 102.518 216.757 105 210 105C206.027 105 202.254 104.142 198.857 102.6C195.884 111.547 187.445 118 177.5 118C168.24 118 160.287 112.406 156.835 104.414C152.05 111.978 143.612 117 134 117C127.315 117 121.198 114.571 116.483 110.547C113.013 112.734 108.905 114 104.5 114C96.6659 114 89.7669 109.996 85.7377 103.923C81.8593 107.096 76.902 109 71.5 109C65.2663 109 59.6248 106.465 55.5499 102.37C52.7382 105.228 48.8261 107 44.5 107C39.8198 107 35.6241 104.926 32.782 101.646C28.5608 109.026 20.6112 114 11.5 114C2.49852 114 -5.36916 109.146 -9.62788 101.912C-12.5313 104.457 -16.3355 106 -20.5 106C-27.3036 106 -33.1454 101.882 -35.6691 96.0028C-39.7861 99.1383 -44.9256 101 -50.5 101C-64.031 101 -75 90.031 -75 76.5C-75 62.969 -64.031 52 -50.5 52C-37.8183 52 -27.387 61.6353 -26.1276 73.9846C-24.3714 73.3474 -22.4762 73 -20.5 73C-16.3355 73 -12.5313 74.5428 -9.62788 77.0881C-5.36916 69.8544 2.49852 65 11.5 65C21.6667 65 30.387 71.1925 34.0949 80.0114C36.8456 77.5186 40.4954 76 44.5 76C46.7904 76 48.9648 76.4968 50.9213 77.3885C54.4185 69.5015 62.3168 64 71.5 64C79.3341 64 86.2331 68.0038 90.2623 74.0768C94.1407 70.9037 99.098 69 104.5 69C108.089 69 111.481 69.8401 114.491 71.3344C119.406 66.1984 126.33 63 134 63C146.025 63 156.214 70.8612 159.708 81.7249C163.824 76.4167 170.263 73 177.5 73C179.516 73 181.471 73.2653 183.331 73.7628C185.364 60.864 196.53 51 210 51C216.757 51 222.935 53.4824 227.671 57.5851C231.881 52.7772 237.554 49.2822 243.996 47.7946C243.344 44.9682 243 42.0243 243 39C243 17.4609 260.461 0 282 0C303.539 0 321 17.4609 321 39Z" fill="#E8FCFE" fill-opacity="0.6"/>
</svg>
