<svg width="272" height="88" viewBox="0 0 272 88" fill="none" xmlns="http://www.w3.org/2000/svg">
<path fill-rule="evenodd" clip-rule="evenodd" d="M325 39C325 60.5391 307.539 78 286 78C286 95.1208 272.121 109 255 109C245.698 109 237.353 104.903 231.671 98.4149C226.935 102.518 220.757 105 214 105C210.027 105 206.254 104.142 202.857 102.6C199.884 111.547 191.445 118 181.5 118C172.24 118 164.287 112.406 160.835 104.414C156.05 111.978 147.612 117 138 117C131.315 117 125.198 114.571 120.483 110.547C117.013 112.734 112.905 114 108.5 114C100.666 114 93.7669 109.996 89.7377 103.923C85.8593 107.096 80.902 109 75.5 109C69.2663 109 63.6248 106.465 59.5499 102.37C56.7382 105.228 52.8261 107 48.5 107C43.8198 107 39.6241 104.926 36.782 101.646C32.5608 109.026 24.6112 114 15.5 114C6.49852 114 -1.36916 109.146 -5.62788 101.912C-8.5313 104.457 -12.3355 106 -16.5 106C-23.3036 106 -29.1454 101.882 -31.6691 96.0028C-35.7861 99.1383 -40.9256 101 -46.5 101C-60.031 101 -71 90.031 -71 76.5C-71 62.969 -60.031 52 -46.5 52C-33.8183 52 -23.387 61.6353 -22.1276 73.9846C-20.3714 73.3474 -18.4762 73 -16.5 73C-12.3355 73 -8.5313 74.5428 -5.62788 77.0881C-1.36916 69.8544 6.49852 65 15.5 65C25.6667 65 34.387 71.1925 38.0949 80.0114C40.8456 77.5186 44.4954 76 48.5 76C50.7904 76 52.9648 76.4968 54.9213 77.3885C58.4185 69.5015 66.3168 64 75.5 64C83.3341 64 90.2331 68.0038 94.2623 74.0768C98.1407 70.9037 103.098 69 108.5 69C112.089 69 115.481 69.8401 118.491 71.3344C123.406 66.1984 130.33 63 138 63C150.025 63 160.214 70.8612 163.708 81.7249C167.824 76.4167 174.263 73 181.5 73C183.516 73 185.471 73.2653 187.331 73.7628C189.364 60.864 200.53 51 214 51C220.757 51 226.935 53.4824 231.671 57.5851C235.881 52.7772 241.554 49.2822 247.996 47.7946C247.344 44.9682 247 42.0243 247 39C247 17.4609 264.461 0 286 0C307.539 0 325 17.4609 325 39Z" fill="#E8FCFE"/>
</svg>
