<svg width="44" height="45" viewBox="0 0 44 45" fill="none" xmlns="http://www.w3.org/2000/svg">
<rect x="0.553711" y="0.914062" width="43.2254" height="43.2254" rx="9.60563" fill="#E7E6F2"/>
<path d="M22.693 30.9087L17.8155 30.8175C16.2362 30.7858 14.6531 30.8492 13.1048 30.5201C10.7496 30.0284 10.5827 27.6175 10.4081 25.5952C10.1676 22.7521 10.2607 19.8575 10.7147 17.0381C10.971 15.4562 11.9796 14.5122 13.5394 14.4095C18.8049 14.0367 24.1055 14.0809 29.3593 14.2548C29.9142 14.2707 30.4728 14.3579 31.02 14.4571C33.7207 14.9409 33.7866 17.6729 33.9617 19.9728C34.1363 22.2965 34.0625 24.632 33.7288 26.9398C33.4611 28.8506 32.9489 30.453 30.7871 30.6077C28.0786 30.81 25.4323 30.9728 22.7162 30.921C22.7163 30.9087 22.7007 30.9087 22.693 30.9087ZM19.8255 26.0711C21.8666 24.8735 23.8687 23.6959 25.8981 22.5063C23.8532 21.3087 21.8549 20.1311 19.8255 18.9415V26.0711Z" fill="#8D8BA7"/>
</svg>
